<svg width="574" height="118" viewBox="0 0 574 118" fill="none" xmlns="http://www.w3.org/2000/svg">
<g clip-path="url(#clip0_11_213)">
<path d="M67.3975 69.4882H69.6445C70.8855 69.4882 71.8916 68.0838 71.8916 64.994V54.882C71.8916 53.641 70.8855 52.635 69.6445 52.635H68.521C67.28 52.635 66.274 51.629 66.274 50.388V45.8938C66.274 44.6528 65.268 43.6467 64.027 43.6467H61.7799H51.668V32.4113V29.0405C51.668 27.179 50.159 25.6699 48.2975 25.6699H40.4327C38.5712 25.6699 37.062 27.179 37.062 29.0405V38.0287H17.9615C14.8589 38.0287 12.3438 40.5438 12.3438 43.6465V57.1289H6.72595V59.376V62.2699C6.72595 65.6357 9.45461 68.3644 12.8205 68.3644H40.4323" fill="#8CC63F"/>
<path d="M44.9267 75.106C44.9267 76.347 43.9206 77.353 42.6796 77.353H40.4326C39.1916 77.353 38.1856 76.347 38.1856 75.106V68.3647H34.8147V71.1737C34.8147 72.7249 33.5572 73.9826 32.0058 73.9826C30.4544 73.9826 29.1969 72.7251 29.1969 71.1737V68.3647H23.5792V74.5444C23.5792 76.0958 24.8367 77.3533 26.3881 77.3533C27.9395 77.3533 29.197 78.6108 29.197 80.1622V91.9594C29.197 93.8209 27.688 95.33 25.8263 95.33H24.7028H47.1737C44.6917 95.33 42.6795 93.3179 42.6795 90.8358V83.5326C42.6795 81.9812 43.937 80.7237 45.4884 80.7237C47.0397 80.7237 48.2974 79.4662 48.2974 77.9148V72.8588H44.9267V75.106Z" fill="#C69C6D"/>
<path d="M44.997 72.9131V77.915C44.997 79.4661 43.7406 80.7239 42.1893 80.7239C40.6381 80.7239 39.3817 81.9815 39.3817 83.5329V90.836C39.3817 93.318 41.321 95.3747 43.8031 95.3747H47.1738C44.6917 95.3747 42.6327 93.318 42.6327 90.836V83.5329C42.6327 81.9815 43.8891 80.7239 45.4404 80.7239C46.9916 80.7239 48.248 79.4664 48.248 77.915V72.9131H44.997Z" fill="#A67C52"/>
<path d="M34.8007 75.106C34.8007 76.347 35.821 77.3461 37.062 77.3461H39.309C39.5042 77.3461 39.6972 77.317 39.8777 77.2701C38.9102 77.0194 38.1994 76.1519 38.1994 75.1059V68.6274H34.8007V71.1736V75.106Z" fill="#A67C52"/>
<path d="M28.6153 73.9826C29.2506 73.9826 29.8342 73.7638 30.3047 73.4082C29.6263 72.8955 29.1853 72.0898 29.1853 71.1738V69.0708H25.7866V71.1737C25.7864 72.7251 27.0639 73.9826 28.6153 73.9826Z" fill="#A67C52"/>
<path d="M48.2972 56.0054H40.4325C39.1915 56.0054 38.1854 57.0114 38.1854 58.2524V62.7466C38.1854 63.9876 39.1915 64.9936 40.4325 64.9936C41.6735 64.9936 42.6795 65.9997 42.6795 67.2407V70.6114C42.6795 71.8524 43.6855 72.8584 44.9265 72.8584H62.9033C64.1443 72.8584 65.1504 71.8524 65.1504 70.6114V64.9938C65.1504 63.7528 64.1443 62.7468 62.9033 62.7468H58.4091C57.1681 62.7468 56.1621 61.7407 56.1621 60.4997V58.2527C56.1621 57.0117 55.1561 56.0057 53.9151 56.0057" fill="#39B54A"/>
<path d="M26.9499 63.8705H32.0058C33.5572 63.8705 34.8147 62.613 34.8147 61.0616V55.4439C34.8147 53.8925 33.5572 52.635 32.0058 52.635H27.5116C25.9602 52.635 24.7027 51.3774 24.7027 49.826C24.7027 48.2746 23.4451 47.0171 21.8937 47.0171H3.91721C2.36582 47.0171 1.10828 48.2746 1.10828 49.826V54.3202C1.10828 55.8716 2.36582 57.1292 3.91721 57.1292H9.53493C11.0863 57.1292 12.3439 58.3867 12.3439 59.9381V61.0616C12.3439 62.613 13.6014 63.8705 15.1528 63.8705H22.4559" fill="#39B54A"/>
<path d="M52.8289 58.253V60.5001C52.8289 61.7411 53.7975 62.7167 55.0385 62.7167H58.4091C57.1681 62.7167 56.2277 61.7411 56.2277 60.5001V58.253C56.2277 57.0119 55.1559 56.0669 53.9149 56.0669H50.5443C51.7854 56.0669 52.8289 57.0119 52.8289 58.253Z" fill="#8CC63F"/>
<path d="M61.8431 70.639C61.8431 71.88 60.7737 72.9131 59.5327 72.9131H62.9032C64.1442 72.9131 65.0939 71.8532 65.0939 70.6122V64.9945C65.0939 63.7533 64.1442 62.7168 62.9032 62.7168H59.5327C60.7737 62.7168 61.8431 63.7515 61.8431 64.9926V70.639Z" fill="#8CC63F"/>
<path d="M21.3321 49.8604C21.3321 51.4118 22.5897 52.668 24.1411 52.668H27.5117C25.9604 52.668 24.7028 51.4116 24.7028 49.8604C24.7028 48.309 23.4453 47.0527 21.8939 47.0527H18.5232C20.0746 47.0527 21.3321 48.309 21.3321 49.8604Z" fill="#8CC63F"/>
<path d="M31.4018 61.0761C31.4018 62.6272 30.1865 63.899 28.6353 63.899H32.0058C33.5572 63.899 34.8006 62.6132 34.8006 61.062V58.253V55.4441C34.8006 53.8927 33.5571 52.668 32.0058 52.668H28.6353C30.1866 52.668 31.4018 53.9162 31.4018 55.4673V61.0761Z" fill="#8CC63F"/>
<path d="M23.0176 41.3997C21.4662 41.3997 20.2086 40.1421 20.2086 38.5907V34.0965C20.2086 32.5451 21.4662 31.2876 23.0176 31.2876H40.9944C42.5456 31.2876 43.8033 32.5451 43.8033 34.0965C43.8033 35.6479 45.0608 36.9055 46.6122 36.9055H56.7242C58.2756 36.9055 59.5331 38.163 59.5331 39.7144V45.3321C59.5331 46.8835 58.2756 48.141 56.7242 48.141H44.927H35.3768C33.8254 48.141 32.5679 46.8835 32.5679 45.3321V44.2086C32.5679 42.6572 31.3103 41.3997 29.7589 41.3997H23.0176Z" fill="#39B54A"/>
<path d="M24.7032 66.1176C25.9442 66.1176 26.9502 65.1116 26.9502 63.8706C26.9502 62.6296 25.9442 61.6235 24.7032 61.6235C23.4622 61.6235 22.4562 62.6296 22.4562 63.8706C22.4562 65.1116 23.4622 66.1176 24.7032 66.1176Z" fill="#FF1D25"/>
<path d="M14.5911 54.8827C15.8321 54.8827 16.8382 53.8767 16.8382 52.6357C16.8382 51.3947 15.8321 50.3887 14.5911 50.3887C13.3501 50.3887 12.3441 51.3947 12.3441 52.6357C12.3441 53.8767 13.3501 54.8827 14.5911 54.8827Z" fill="#FF1D25"/>
<path d="M42.6799 50.3886C43.9209 50.3886 44.9269 49.3826 44.9269 48.1416C44.9269 46.9006 43.9209 45.8945 42.6799 45.8945C41.4389 45.8945 40.4329 46.9006 40.4329 48.1416C40.4329 49.3826 41.4389 50.3886 42.6799 50.3886Z" fill="#FF1D25"/>
<path d="M26.9494 43.6474C28.1904 43.6474 29.1964 42.6414 29.1964 41.4004C29.1964 40.1594 28.1904 39.1533 26.9494 39.1533C25.7084 39.1533 24.7023 40.1594 24.7023 41.4004C24.7023 42.6414 25.7084 43.6474 26.9494 43.6474Z" fill="#FF1D25"/>
<path d="M49.4213 69.4887C50.6623 69.4887 51.6683 68.4827 51.6683 67.2417C51.6683 66.0007 50.6623 64.9946 49.4213 64.9946C48.1803 64.9946 47.1743 66.0007 47.1743 67.2417C47.1743 68.4827 48.1803 69.4887 49.4213 69.4887Z" fill="#FF1D25"/>
<path d="M50.5443 58.2533C51.7853 58.2533 52.7914 57.2473 52.7914 56.0063C52.7914 54.7653 51.7853 53.7593 50.5443 53.7593C49.3033 53.7593 48.2973 54.7653 48.2973 56.0063C48.2973 57.2473 49.3033 58.2533 50.5443 58.2533Z" fill="#FF1D25"/>
<path d="M62.9042 59.3764C64.1452 59.3764 65.1512 58.3704 65.1512 57.1294C65.1512 55.8884 64.1452 54.8823 62.9042 54.8823C61.6632 54.8823 60.6572 55.8884 60.6572 57.1294C60.6572 58.3704 61.6632 59.3764 62.9042 59.3764Z" fill="#FF1D25"/>
<path d="M38.1854 34.0484C38.1854 35.5998 39.4429 36.856 40.9943 36.856H46.612C45.0607 36.856 43.8031 35.5996 43.8031 34.0484C43.8031 32.4971 42.5456 31.2407 40.9942 31.2407H35.3765C36.9277 31.2407 38.1854 32.4971 38.1854 34.0484Z" fill="#8CC63F"/>
<path d="M53.8633 45.3048C53.8633 46.856 52.6573 48.0867 51.106 48.0867H56.7237C58.2751 48.0867 59.4786 46.883 59.4786 45.3318V39.7141C59.4786 38.1627 58.2749 36.856 56.7237 36.856H51.106C52.6572 36.856 53.8633 38.1246 53.8633 39.6759V45.3048Z" fill="#8CC63F"/>
<path d="M69.6446 70.5963H67.3975V68.3797H69.6446C70.2726 68.3797 70.7835 67.8688 70.7835 67.2409V54.8819C70.7835 54.254 70.2726 53.7432 69.6446 53.7432H68.521C66.6708 53.7432 65.1656 52.238 65.1656 50.3879V45.8937C65.1656 45.2656 64.6548 44.7547 64.0268 44.7547H61.7797V42.5381H64.0268C65.8769 42.5381 67.3821 44.0433 67.3821 45.8935V50.3877C67.3821 51.0156 67.893 51.5265 68.521 51.5265H69.6446C71.4948 51.5265 73 53.0317 73 54.8818V67.2407C73 69.0911 71.4948 70.5963 69.6446 70.5963Z" fill="black"/>
<path d="M52.792 39.1523C54.033 39.1523 55.039 38.1462 55.039 36.9052C55.039 35.6642 54.033 34.6582 52.792 34.6582C51.551 34.6582 50.5449 35.6642 50.5449 36.9052C50.5449 38.1462 51.551 39.1523 52.792 39.1523Z" fill="#FF1D25"/>
<path d="M14.5908 55.9904C12.7406 55.9904 11.2354 54.4852 11.2354 52.6351C11.2354 50.7848 12.7406 49.2798 14.5908 49.2798C16.4409 49.2798 17.9461 50.785 17.9461 52.6351C17.9461 54.485 16.4409 55.9904 14.5908 55.9904ZM14.5908 51.496C13.9629 51.496 13.4519 52.0069 13.4519 52.6348C13.4519 53.2627 13.9628 53.7736 14.5908 53.7736C15.2188 53.7736 15.7296 53.2627 15.7296 52.6348C15.7296 52.0069 15.2188 51.496 14.5908 51.496Z" fill="black"/>
<path d="M49.4207 70.5965C47.5705 70.5965 46.0654 69.0913 46.0654 67.2412C46.0654 65.3909 47.5706 63.8857 49.4207 63.8857C51.271 63.8857 52.7762 65.3909 52.7762 67.2412C52.7762 69.0913 51.271 70.5965 49.4207 70.5965ZM49.4207 66.1024C48.7928 66.1024 48.282 66.6133 48.282 67.2413C48.282 67.8692 48.7928 68.3801 49.4207 68.3801C50.0488 68.3801 50.5596 67.8692 50.5596 67.2413C50.5596 66.6133 50.0488 66.1024 49.4207 66.1024Z" fill="black"/>
<path d="M62.9033 60.4846C61.0531 60.4846 59.5479 58.9795 59.5479 57.1292C59.5479 55.279 61.0531 53.7739 62.9033 53.7739C64.7534 53.7739 66.2586 55.2791 66.2586 57.1292C66.2588 58.9795 64.7536 60.4846 62.9033 60.4846ZM62.9033 55.9904C62.2753 55.9904 61.7644 56.5013 61.7644 57.1292C61.7644 57.7571 62.2753 58.2681 62.9033 58.2681C63.5313 58.2681 64.0421 57.7573 64.0421 57.1292C64.0421 56.5012 63.5313 55.9904 62.9033 55.9904Z" fill="black"/>
<path d="M7.90582 52.668H5.54144V54.8846H7.90582V52.668Z" fill="black"/>
<path d="M21.3534 54.8848H19.1367V57.1014H21.3534V54.8848Z" fill="black"/>
<path d="M28.0031 57.1011H21.3532V59.3177H28.0031V57.1011Z" fill="black"/>
<path d="M19.1367 40.2552H14.9948C15.7884 39.5603 16.8264 39.1376 17.9616 39.1376V36.9209C14.253 36.9209 11.2356 39.9381 11.2356 43.6469V44.7705H13.4523V43.6469C13.4523 43.2404 13.5073 42.8467 13.6087 42.4717H19.1368V40.2549H19.1367V40.2552Z" fill="black"/>
<path d="M56.7239 35.7974H55.9579C55.4991 34.4904 54.2534 33.5502 52.7914 33.5502C51.3294 33.5502 50.0837 34.4903 49.6249 35.7974H46.6119C45.6742 35.7974 44.9114 35.0345 44.9114 34.0969C44.9114 31.9368 43.1543 30.1797 40.9942 30.1797H23.0175C20.8575 30.1797 19.1003 31.9368 19.1003 34.0969V38.5911C19.1003 40.7511 20.8575 42.5083 23.0175 42.5083H23.7836C24.2424 43.8153 25.4881 44.7553 26.9501 44.7553C28.3989 44.7553 29.6359 43.8324 30.1045 42.5438C30.877 42.7039 31.4594 43.3897 31.4594 44.2089V45.3325C31.4594 47.4925 33.2167 49.2497 35.3766 49.2497H39.5133C39.9721 50.5567 41.2178 51.4967 42.6796 51.4967C44.1415 51.4967 45.3873 50.5567 45.8461 49.2497H56.724C58.8841 49.2497 60.6412 47.4924 60.6412 45.3325V39.7147C60.641 37.5547 58.8838 35.7974 56.7239 35.7974ZM52.7914 35.7669C53.4193 35.7669 53.9302 36.2778 53.9302 36.9058C53.9302 37.5337 53.4193 38.0446 52.7914 38.0446C52.1633 38.0446 51.6525 37.5337 51.6525 36.9058C51.6526 36.2778 52.1635 35.7669 52.7914 35.7669ZM26.9498 42.5386C26.3219 42.5386 25.8111 42.0278 25.8111 41.3999C25.8111 40.772 26.3219 40.2611 26.9498 40.2611C27.5779 40.2611 28.0887 40.772 28.0887 41.3999C28.0887 42.0278 27.5779 42.5386 26.9498 42.5386ZM42.6795 49.2799C42.0516 49.2799 41.5407 48.769 41.5407 48.1411C41.5407 47.5132 42.0516 47.0023 42.6795 47.0023C43.3074 47.0023 43.8183 47.5132 43.8183 48.1411C43.8184 48.769 43.3075 49.2799 42.6795 49.2799ZM58.4244 45.3322C58.4244 46.2699 57.6614 47.0327 56.7239 47.0327H45.846C45.3872 45.7257 44.1415 44.7857 42.6795 44.7857C41.2178 44.7857 39.9718 45.7257 39.513 47.0327H35.3763C34.4386 47.0327 33.6758 46.2698 33.6758 45.3322V44.2087C33.6758 42.1714 32.1122 40.4931 30.1222 40.3089C29.6684 38.9926 28.4182 38.0443 26.9498 38.0443C25.488 38.0443 24.2421 38.9843 23.7833 40.2913H23.0174C22.0798 40.2913 21.3169 39.5284 21.3169 38.5908V36.8565H24.7521V34.6398H21.3169V34.0967C21.3169 33.1591 22.0798 32.3962 23.0174 32.3962H40.9942C41.9318 32.3962 42.6947 33.1591 42.6947 34.0967C42.6947 36.2568 44.452 38.0139 46.6119 38.0139H49.6249C50.0837 39.3209 51.3294 40.261 52.7914 40.261C54.2531 40.261 55.499 39.3209 55.9578 38.0139H56.7237C57.6614 38.0139 58.4242 38.7769 58.4242 39.7145V45.3322H58.4244Z" fill="black"/>
<path d="M39.3816 36.8564H34.8006V39.0731H39.3816V36.8564Z" fill="black"/>
<path d="M42.6327 39.2207H39.3817V41.4374H42.6327V39.2207Z" fill="black"/>
<path d="M56.2277 42.4717H52.8289V44.6883H56.2277V42.4717Z" fill="black"/>
<path d="M58.4443 51.4858H56.2277V53.7025H58.4443V51.4858Z" fill="black"/>
<path d="M60.6609 66.1152H57.2621V68.3319H60.6609V66.1152Z" fill="black"/>
<path d="M48.2972 24.5615H40.4324C37.9627 24.5615 35.9536 26.5707 35.9536 29.0405H38.1703C38.1703 27.7929 39.1851 26.7782 40.4327 26.7782H48.2975C49.5393 26.7782 50.5499 27.7842 50.559 29.0241H48.2481V31.2407H50.5597V32.4112H52.7764V29.0403C52.7761 26.5706 50.7669 24.5615 48.2972 24.5615Z" fill="black"/>
<path d="M11.2354 59.9382V61.0618C11.2354 63.2217 12.9927 64.979 15.1526 64.979H21.5363C21.9951 66.286 23.2408 67.2262 24.7028 67.2262C26.1647 67.2262 27.4105 66.2862 27.8693 64.979H32.0059C34.1659 64.979 35.9231 63.2217 35.9231 61.0618V55.4441C35.9231 53.2842 34.1659 51.5269 32.0059 51.5269H27.5117C26.574 51.5269 25.8112 50.764 25.8112 49.8264C25.8112 47.6663 24.0541 45.9092 21.894 45.9092H3.91719C1.75713 45.9092 0 47.6663 0 49.8264V54.3206C0 56.4806 1.75713 58.2378 3.91719 58.2378H9.53491C10.4725 58.2376 11.2354 59.0006 11.2354 59.9382ZM24.7028 65.0094C24.0749 65.0094 23.564 64.4985 23.564 63.8705C23.564 63.2425 24.0749 62.7315 24.7028 62.7315C25.3307 62.7315 25.8416 63.2424 25.8416 63.8705C25.8416 64.4985 25.3307 65.0094 24.7028 65.0094ZM2.21666 54.3206V52.6681H5.54158V50.4514H2.21666V49.8264C2.21666 48.8886 2.9796 48.1258 3.91719 48.1258H21.894C22.8316 48.1258 23.5945 48.8888 23.5945 49.8264C23.5945 51.9864 25.3518 53.7436 27.5117 53.7436H32.0059C32.9435 53.7436 33.7065 54.5065 33.7065 55.4441V61.0618C33.7065 61.9994 32.9435 62.7623 32.0059 62.7623H27.8693C27.4105 61.4553 26.1648 60.5152 24.7028 60.5152C23.2411 60.5152 21.9952 61.4552 21.5363 62.7623H15.1526C14.215 62.7623 13.4521 61.9994 13.4521 61.0618V59.9382C13.4521 57.7782 11.695 56.021 9.53491 56.021H3.91719C2.9796 56.021 2.21666 55.2582 2.21666 54.3206Z" fill="black"/>
<path d="M62.9033 61.6387H58.4091C57.7812 61.6387 57.2704 61.1278 57.2704 60.4997V58.2527C57.2704 56.4026 55.7652 54.8974 53.9149 54.8974H53.7108C53.2519 53.5904 52.0062 52.6504 50.5442 52.6504C49.0825 52.6504 47.8365 53.5904 47.3777 54.8974H40.4323C38.5821 54.8974 37.077 56.4026 37.077 58.2527V62.7469C37.077 64.597 38.5822 66.1022 40.4323 66.1022C41.0602 66.1022 41.5711 66.6131 41.5711 67.2411V70.6118C41.5711 72.0735 42.5111 73.3195 43.8181 73.7782V75.1059C43.8181 75.7339 43.3073 76.2448 42.6793 76.2448H40.4323C39.8043 76.2448 39.2934 75.7339 39.2934 75.1059V69.4729H40.4323V67.2562H12.8205C10.0712 67.2562 7.8344 65.0193 7.8344 62.2701V59.3764H5.61774V62.2703C5.61774 66.2418 8.84884 69.473 12.8205 69.473H22.471V74.5441C22.471 76.7042 24.2282 78.4613 26.3882 78.4613C27.326 78.4613 28.0888 79.2242 28.0888 80.1618V91.959C28.0888 93.2066 27.0739 94.2213 25.8265 94.2215H25.825H24.703V96.4381H25.8266C25.827 96.4381 25.8276 96.4381 25.828 96.4381L46.6079 96.4096C46.7942 96.4284 46.9828 96.4381 47.174 96.4381V96.4088H47.1754L47.174 95.3005V94.2215C47.1736 94.2215 47.173 94.2215 47.1726 94.2215V94.1922L46.7405 94.1928C45.0777 93.9792 43.7882 92.5557 43.7882 90.8357V83.5327C43.7882 82.5949 44.5511 81.8321 45.4887 81.8321C47.6488 81.8321 49.4059 80.075 49.4059 77.915V73.9674H62.9036C64.7537 73.9674 66.2589 72.4622 66.2589 70.6121V64.9944C66.2588 63.1439 64.7536 61.6387 62.9033 61.6387ZM50.5444 54.8669C51.1723 54.8669 51.6832 55.3778 51.6832 56.0057C51.6832 56.6336 51.1723 57.1445 50.5444 57.1445C49.9165 57.1445 49.4056 56.6336 49.4056 56.0057C49.4055 55.3778 49.9163 54.8669 50.5444 54.8669ZM30.3054 69.4729H33.7066V71.1734C33.7066 72.1112 32.9437 72.874 32.0061 72.874C31.0685 72.874 30.3056 72.111 30.3056 71.1734L30.3054 69.4729ZM47.1889 77.9148C47.1889 78.8524 46.426 79.6153 45.4884 79.6153C43.3284 79.6153 41.5712 81.3726 41.5712 83.5325V90.8355C41.5712 92.0963 41.9901 93.2611 42.6957 94.1982L29.6926 94.2161C30.0813 93.5526 30.3053 92.7817 30.3053 91.9589V80.1617C30.3053 78.0018 28.548 76.2445 26.3881 76.2445C25.4505 76.2445 24.6876 75.4816 24.6876 74.544V69.4729H28.0888V71.1734C28.0888 73.3335 29.846 75.0906 32.006 75.0906C34.1659 75.0906 35.9231 73.3333 35.9231 71.1734V69.4729H37.0773V75.1059C37.0773 76.9561 38.5825 78.4613 40.4326 78.4613H42.6796C44.5297 78.4613 46.0349 76.9561 46.0349 75.1059V73.967H47.1891L47.1889 77.9148ZM64.0421 70.6118C64.0421 71.2397 63.5313 71.7506 62.9033 71.7506H44.9267C44.2987 71.7506 43.7879 71.2397 43.7879 70.6118V67.2411C43.7879 65.3909 42.2827 63.8857 40.4326 63.8857C39.8045 63.8857 39.2937 63.3748 39.2937 62.7469V58.2527C39.2937 57.6248 39.8045 57.1139 40.4326 57.1139H47.3782C47.837 58.421 49.0827 59.361 50.5445 59.361C52.0064 59.361 53.2522 58.421 53.711 57.1139H53.9152C54.5433 57.1139 55.0541 57.6248 55.0541 58.2527V60.4999C55.0541 62.3501 56.5593 63.8553 58.4094 63.8553H62.9036C63.5315 63.8553 64.0424 64.3662 64.0424 64.9941V70.6118H64.0421Z" fill="black"/>
</g>
<mask id="path-40-outside-1_11_213" maskUnits="userSpaceOnUse" x="81" y="19" width="478" height="100" fill="black">
<rect fill="white" x="81" y="19" width="478" height="100"/>
<path d="M82.1733 97V24.2727H128.764V35.3168H95.348V55.0611H125.568V66.1051H95.348V97H82.1733ZM139.418 97V42.4545H151.882V51.5455H152.45C153.445 48.3968 155.149 45.9702 157.564 44.2656C160.002 42.5374 162.784 41.6733 165.909 41.6733C166.619 41.6733 167.412 41.7088 168.288 41.7798C169.188 41.8272 169.934 41.91 170.526 42.0284V53.8537C169.981 53.6643 169.117 53.4986 167.933 53.3565C166.773 53.1908 165.649 53.108 164.56 53.108C162.216 53.108 160.109 53.6169 158.239 54.6349C156.392 55.6293 154.936 57.0142 153.871 58.7898C152.805 60.5653 152.273 62.6132 152.273 64.9332V97H139.418ZM213.832 74.0597V42.4545H226.687V97H214.222V87.3054H213.654C212.423 90.3594 210.399 92.857 207.582 94.7983C204.788 96.7396 201.344 97.7102 197.248 97.7102C193.673 97.7102 190.513 96.9171 187.766 95.331C185.044 93.7211 182.913 91.3892 181.374 88.3352C179.835 85.2576 179.066 81.5407 179.066 77.1847V42.4545H191.921V75.196C191.921 78.6525 192.868 81.3987 194.762 83.4347C196.656 85.4706 199.142 86.4886 202.219 86.4886C204.113 86.4886 205.948 86.027 207.724 85.1037C209.499 84.1804 210.955 82.8073 212.092 80.9844C213.252 79.1378 213.832 76.8295 213.832 74.0597ZM239.906 97V42.4545H252.761V97H239.906ZM246.369 34.7131C244.333 34.7131 242.581 34.0384 241.113 32.6889C239.645 31.3158 238.912 29.6705 238.912 27.7528C238.912 25.8116 239.645 24.1662 241.113 22.8168C242.581 21.4437 244.333 20.7571 246.369 20.7571C248.429 20.7571 250.181 21.4437 251.625 22.8168C253.092 24.1662 253.826 25.8116 253.826 27.7528C253.826 29.6705 253.092 31.3158 251.625 32.6889C250.181 34.0384 248.429 34.7131 246.369 34.7131ZM293.217 42.4545V52.3977H261.861V42.4545H293.217ZM269.602 29.3864H282.457V80.5938C282.457 82.322 282.718 83.6477 283.239 84.571C283.783 85.4706 284.493 86.0862 285.369 86.4176C286.245 86.7491 287.216 86.9148 288.281 86.9148C289.086 86.9148 289.82 86.8556 290.483 86.7372C291.17 86.6188 291.69 86.5123 292.045 86.4176L294.212 96.4673C293.525 96.7041 292.543 96.9645 291.264 97.2486C290.009 97.5327 288.471 97.6984 286.648 97.7457C283.428 97.8404 280.528 97.3551 277.947 96.2898C275.367 95.2008 273.319 93.5199 271.804 91.2472C270.313 88.9744 269.579 86.1335 269.602 82.7244V29.3864ZM371.884 56.8722L360.165 58.1506C359.834 56.9669 359.254 55.8542 358.425 54.8125C357.62 53.7708 356.531 52.9304 355.158 52.2912C353.785 51.652 352.104 51.3324 350.115 51.3324C347.44 51.3324 345.191 51.9124 343.368 53.0724C341.569 54.2325 340.681 55.7358 340.705 57.5824C340.681 59.1686 341.261 60.4588 342.445 61.4531C343.652 62.4474 345.641 63.2642 348.411 63.9034L357.715 65.892C362.876 67.0047 366.711 68.7685 369.221 71.1832C371.754 73.598 373.032 76.7585 373.056 80.6648C373.032 84.0975 372.026 87.1278 370.037 89.7557C368.072 92.3598 365.338 94.3958 361.834 95.8636C358.33 97.3314 354.306 98.0653 349.76 98.0653C343.084 98.0653 337.71 96.6686 333.638 93.875C329.566 91.0578 327.14 87.1397 326.358 82.1207L338.894 80.9134C339.462 83.3755 340.669 85.2339 342.516 86.4886C344.363 87.7434 346.766 88.3707 349.725 88.3707C352.779 88.3707 355.229 87.7434 357.076 86.4886C358.946 85.2339 359.881 83.6832 359.881 81.8366C359.881 80.2741 359.277 78.9839 358.07 77.9659C356.886 76.9479 355.04 76.1667 352.53 75.6222L343.226 73.669C337.994 72.58 334.123 70.7453 331.614 68.1648C329.105 65.5606 327.862 62.2699 327.885 58.2926C327.862 54.9309 328.773 52.0189 330.62 49.5568C332.49 47.071 335.082 45.1534 338.397 43.804C341.735 42.4309 345.582 41.7443 349.938 41.7443C356.33 41.7443 361.361 43.1056 365.03 45.8281C368.723 48.5507 371.008 52.232 371.884 56.8722ZM396.511 65.0398V97H383.656V24.2727H396.227V51.723H396.866C398.145 48.6454 400.121 46.2187 402.797 44.4432C405.495 42.6439 408.928 41.7443 413.095 41.7443C416.883 41.7443 420.185 42.5374 423.002 44.1236C425.82 45.7098 427.998 48.0298 429.537 51.0838C431.099 54.1378 431.88 57.8665 431.88 62.2699V97H419.025V64.2585C419.025 60.589 418.078 57.7363 416.184 55.7003C414.314 53.6406 411.686 52.6108 408.301 52.6108C406.028 52.6108 403.992 53.108 402.193 54.1023C400.417 55.0729 399.02 56.4815 398.002 58.3281C397.008 60.1747 396.511 62.4119 396.511 65.0398ZM468.777 98.0653C463.45 98.0653 458.833 96.8935 454.927 94.5497C451.021 92.206 447.991 88.9271 445.836 84.7131C443.706 80.4991 442.64 75.5748 442.64 69.9403C442.64 64.3059 443.706 59.3698 445.836 55.1321C447.991 50.8944 451.021 47.6037 454.927 45.2599C458.833 42.9162 463.45 41.7443 468.777 41.7443C474.103 41.7443 478.72 42.9162 482.626 45.2599C486.532 47.6037 489.551 50.8944 491.681 55.1321C493.836 59.3698 494.913 64.3059 494.913 69.9403C494.913 75.5748 493.836 80.4991 491.681 84.7131C489.551 88.9271 486.532 92.206 482.626 94.5497C478.72 96.8935 474.103 98.0653 468.777 98.0653ZM468.848 87.767C471.736 87.767 474.151 86.974 476.092 85.3878C478.033 83.7779 479.477 81.6236 480.424 78.9247C481.395 76.2259 481.88 73.2192 481.88 69.9048C481.88 66.5668 481.395 63.5483 480.424 60.8494C479.477 58.1269 478.033 55.9607 476.092 54.3509C474.151 52.741 471.736 51.9361 468.848 51.9361C465.888 51.9361 463.426 52.741 461.461 54.3509C459.52 55.9607 458.064 58.1269 457.093 60.8494C456.146 63.5483 455.673 66.5668 455.673 69.9048C455.673 73.2192 456.146 76.2259 457.093 78.9247C458.064 81.6236 459.52 83.7779 461.461 85.3878C463.426 86.974 465.888 87.767 468.848 87.767ZM505.824 117.455V42.4545H518.466V51.4744H519.212C519.875 50.1487 520.81 48.7401 522.017 47.2486C523.224 45.7334 524.858 44.4432 526.918 43.3778C528.977 42.2888 531.605 41.7443 534.801 41.7443C539.015 41.7443 542.815 42.8215 546.2 44.9759C549.609 47.1065 552.308 50.267 554.297 54.4574C556.309 58.6241 557.315 63.7377 557.315 69.7983C557.315 75.7879 556.333 80.8778 554.368 85.0682C552.403 89.2585 549.728 92.4545 546.342 94.6562C542.957 96.858 539.122 97.9588 534.837 97.9588C531.712 97.9588 529.119 97.438 527.06 96.3963C525 95.3546 523.343 94.0999 522.088 92.6321C520.857 91.1406 519.898 89.732 519.212 88.4062H518.679V117.455H505.824ZM518.43 69.7273C518.43 73.2547 518.928 76.3442 519.922 78.9957C520.94 81.6473 522.396 83.7187 524.29 85.2102C526.207 86.678 528.527 87.4119 531.25 87.4119C534.091 87.4119 536.47 86.6544 538.388 85.1392C540.305 83.6004 541.75 81.5052 542.72 78.8537C543.714 76.1785 544.212 73.1364 544.212 69.7273C544.212 66.3419 543.726 63.3352 542.756 60.7074C541.785 58.0795 540.341 56.0199 538.423 54.5284C536.506 53.0369 534.115 52.2912 531.25 52.2912C528.504 52.2912 526.172 53.0133 524.254 54.4574C522.337 55.9015 520.881 57.9257 519.886 60.5298C518.916 63.134 518.43 66.1998 518.43 69.7273Z"/>
</mask>
<path d="M82.1733 97V24.2727H128.764V35.3168H95.348V55.0611H125.568V66.1051H95.348V97H82.1733ZM139.418 97V42.4545H151.882V51.5455H152.45C153.445 48.3968 155.149 45.9702 157.564 44.2656C160.002 42.5374 162.784 41.6733 165.909 41.6733C166.619 41.6733 167.412 41.7088 168.288 41.7798C169.188 41.8272 169.934 41.91 170.526 42.0284V53.8537C169.981 53.6643 169.117 53.4986 167.933 53.3565C166.773 53.1908 165.649 53.108 164.56 53.108C162.216 53.108 160.109 53.6169 158.239 54.6349C156.392 55.6293 154.936 57.0142 153.871 58.7898C152.805 60.5653 152.273 62.6132 152.273 64.9332V97H139.418ZM213.832 74.0597V42.4545H226.687V97H214.222V87.3054H213.654C212.423 90.3594 210.399 92.857 207.582 94.7983C204.788 96.7396 201.344 97.7102 197.248 97.7102C193.673 97.7102 190.513 96.9171 187.766 95.331C185.044 93.7211 182.913 91.3892 181.374 88.3352C179.835 85.2576 179.066 81.5407 179.066 77.1847V42.4545H191.921V75.196C191.921 78.6525 192.868 81.3987 194.762 83.4347C196.656 85.4706 199.142 86.4886 202.219 86.4886C204.113 86.4886 205.948 86.027 207.724 85.1037C209.499 84.1804 210.955 82.8073 212.092 80.9844C213.252 79.1378 213.832 76.8295 213.832 74.0597ZM239.906 97V42.4545H252.761V97H239.906ZM246.369 34.7131C244.333 34.7131 242.581 34.0384 241.113 32.6889C239.645 31.3158 238.912 29.6705 238.912 27.7528C238.912 25.8116 239.645 24.1662 241.113 22.8168C242.581 21.4437 244.333 20.7571 246.369 20.7571C248.429 20.7571 250.181 21.4437 251.625 22.8168C253.092 24.1662 253.826 25.8116 253.826 27.7528C253.826 29.6705 253.092 31.3158 251.625 32.6889C250.181 34.0384 248.429 34.7131 246.369 34.7131ZM293.217 42.4545V52.3977H261.861V42.4545H293.217ZM269.602 29.3864H282.457V80.5938C282.457 82.322 282.718 83.6477 283.239 84.571C283.783 85.4706 284.493 86.0862 285.369 86.4176C286.245 86.7491 287.216 86.9148 288.281 86.9148C289.086 86.9148 289.82 86.8556 290.483 86.7372C291.17 86.6188 291.69 86.5123 292.045 86.4176L294.212 96.4673C293.525 96.7041 292.543 96.9645 291.264 97.2486C290.009 97.5327 288.471 97.6984 286.648 97.7457C283.428 97.8404 280.528 97.3551 277.947 96.2898C275.367 95.2008 273.319 93.5199 271.804 91.2472C270.313 88.9744 269.579 86.1335 269.602 82.7244V29.3864ZM371.884 56.8722L360.165 58.1506C359.834 56.9669 359.254 55.8542 358.425 54.8125C357.62 53.7708 356.531 52.9304 355.158 52.2912C353.785 51.652 352.104 51.3324 350.115 51.3324C347.44 51.3324 345.191 51.9124 343.368 53.0724C341.569 54.2325 340.681 55.7358 340.705 57.5824C340.681 59.1686 341.261 60.4588 342.445 61.4531C343.652 62.4474 345.641 63.2642 348.411 63.9034L357.715 65.892C362.876 67.0047 366.711 68.7685 369.221 71.1832C371.754 73.598 373.032 76.7585 373.056 80.6648C373.032 84.0975 372.026 87.1278 370.037 89.7557C368.072 92.3598 365.338 94.3958 361.834 95.8636C358.33 97.3314 354.306 98.0653 349.76 98.0653C343.084 98.0653 337.71 96.6686 333.638 93.875C329.566 91.0578 327.14 87.1397 326.358 82.1207L338.894 80.9134C339.462 83.3755 340.669 85.2339 342.516 86.4886C344.363 87.7434 346.766 88.3707 349.725 88.3707C352.779 88.3707 355.229 87.7434 357.076 86.4886C358.946 85.2339 359.881 83.6832 359.881 81.8366C359.881 80.2741 359.277 78.9839 358.07 77.9659C356.886 76.9479 355.04 76.1667 352.53 75.6222L343.226 73.669C337.994 72.58 334.123 70.7453 331.614 68.1648C329.105 65.5606 327.862 62.2699 327.885 58.2926C327.862 54.9309 328.773 52.0189 330.62 49.5568C332.49 47.071 335.082 45.1534 338.397 43.804C341.735 42.4309 345.582 41.7443 349.938 41.7443C356.33 41.7443 361.361 43.1056 365.03 45.8281C368.723 48.5507 371.008 52.232 371.884 56.8722ZM396.511 65.0398V97H383.656V24.2727H396.227V51.723H396.866C398.145 48.6454 400.121 46.2187 402.797 44.4432C405.495 42.6439 408.928 41.7443 413.095 41.7443C416.883 41.7443 420.185 42.5374 423.002 44.1236C425.82 45.7098 427.998 48.0298 429.537 51.0838C431.099 54.1378 431.88 57.8665 431.88 62.2699V97H419.025V64.2585C419.025 60.589 418.078 57.7363 416.184 55.7003C414.314 53.6406 411.686 52.6108 408.301 52.6108C406.028 52.6108 403.992 53.108 402.193 54.1023C400.417 55.0729 399.02 56.4815 398.002 58.3281C397.008 60.1747 396.511 62.4119 396.511 65.0398ZM468.777 98.0653C463.45 98.0653 458.833 96.8935 454.927 94.5497C451.021 92.206 447.991 88.9271 445.836 84.7131C443.706 80.4991 442.64 75.5748 442.64 69.9403C442.64 64.3059 443.706 59.3698 445.836 55.1321C447.991 50.8944 451.021 47.6037 454.927 45.2599C458.833 42.9162 463.45 41.7443 468.777 41.7443C474.103 41.7443 478.72 42.9162 482.626 45.2599C486.532 47.6037 489.551 50.8944 491.681 55.1321C493.836 59.3698 494.913 64.3059 494.913 69.9403C494.913 75.5748 493.836 80.4991 491.681 84.7131C489.551 88.9271 486.532 92.206 482.626 94.5497C478.72 96.8935 474.103 98.0653 468.777 98.0653ZM468.848 87.767C471.736 87.767 474.151 86.974 476.092 85.3878C478.033 83.7779 479.477 81.6236 480.424 78.9247C481.395 76.2259 481.88 73.2192 481.88 69.9048C481.88 66.5668 481.395 63.5483 480.424 60.8494C479.477 58.1269 478.033 55.9607 476.092 54.3509C474.151 52.741 471.736 51.9361 468.848 51.9361C465.888 51.9361 463.426 52.741 461.461 54.3509C459.52 55.9607 458.064 58.1269 457.093 60.8494C456.146 63.5483 455.673 66.5668 455.673 69.9048C455.673 73.2192 456.146 76.2259 457.093 78.9247C458.064 81.6236 459.52 83.7779 461.461 85.3878C463.426 86.974 465.888 87.767 468.848 87.767ZM505.824 117.455V42.4545H518.466V51.4744H519.212C519.875 50.1487 520.81 48.7401 522.017 47.2486C523.224 45.7334 524.858 44.4432 526.918 43.3778C528.977 42.2888 531.605 41.7443 534.801 41.7443C539.015 41.7443 542.815 42.8215 546.2 44.9759C549.609 47.1065 552.308 50.267 554.297 54.4574C556.309 58.6241 557.315 63.7377 557.315 69.7983C557.315 75.7879 556.333 80.8778 554.368 85.0682C552.403 89.2585 549.728 92.4545 546.342 94.6562C542.957 96.858 539.122 97.9588 534.837 97.9588C531.712 97.9588 529.119 97.438 527.06 96.3963C525 95.3546 523.343 94.0999 522.088 92.6321C520.857 91.1406 519.898 89.732 519.212 88.4062H518.679V117.455H505.824ZM518.43 69.7273C518.43 73.2547 518.928 76.3442 519.922 78.9957C520.94 81.6473 522.396 83.7187 524.29 85.2102C526.207 86.678 528.527 87.4119 531.25 87.4119C534.091 87.4119 536.47 86.6544 538.388 85.1392C540.305 83.6004 541.75 81.5052 542.72 78.8537C543.714 76.1785 544.212 73.1364 544.212 69.7273C544.212 66.3419 543.726 63.3352 542.756 60.7074C541.785 58.0795 540.341 56.0199 538.423 54.5284C536.506 53.0369 534.115 52.2912 531.25 52.2912C528.504 52.2912 526.172 53.0133 524.254 54.4574C522.337 55.9015 520.881 57.9257 519.886 60.5298C518.916 63.134 518.43 66.1998 518.43 69.7273Z" fill="#9FEE00"/>
<path d="M82.1733 97H81.1733V98H82.1733V97ZM82.1733 24.2727V23.2727H81.1733V24.2727H82.1733ZM128.764 24.2727H129.764V23.2727H128.764V24.2727ZM128.764 35.3168V36.3168H129.764V35.3168H128.764ZM95.348 35.3168V34.3168H94.348V35.3168H95.348ZM95.348 55.0611H94.348V56.0611H95.348V55.0611ZM125.568 55.0611H126.568V54.0611H125.568V55.0611ZM125.568 66.1051V67.1051H126.568V66.1051H125.568ZM95.348 66.1051V65.1051H94.348V66.1051H95.348ZM95.348 97V98H96.348V97H95.348ZM83.1733 97V24.2727H81.1733V97H83.1733ZM82.1733 25.2727H128.764V23.2727H82.1733V25.2727ZM127.764 24.2727V35.3168H129.764V24.2727H127.764ZM128.764 34.3168H95.348V36.3168H128.764V34.3168ZM94.348 35.3168V55.0611H96.348V35.3168H94.348ZM95.348 56.0611H125.568V54.0611H95.348V56.0611ZM124.568 55.0611V66.1051H126.568V55.0611H124.568ZM125.568 65.1051H95.348V67.1051H125.568V65.1051ZM94.348 66.1051V97H96.348V66.1051H94.348ZM95.348 96H82.1733V98H95.348V96ZM139.418 97H138.418V98H139.418V97ZM139.418 42.4545V41.4545H138.418V42.4545H139.418ZM151.882 42.4545H152.882V41.4545H151.882V42.4545ZM151.882 51.5455H150.882V52.5455H151.882V51.5455ZM152.45 51.5455V52.5455H153.183L153.404 51.8466L152.45 51.5455ZM157.564 44.2656L158.141 45.0826L158.142 45.0815L157.564 44.2656ZM168.288 41.7798L168.208 42.7766L168.222 42.7777L168.236 42.7784L168.288 41.7798ZM170.526 42.0284H171.526V41.2086L170.722 41.0478L170.526 42.0284ZM170.526 53.8537L170.197 54.7982L171.526 55.2603V53.8537H170.526ZM167.933 53.3565L167.792 54.3465L167.803 54.3481L167.814 54.3494L167.933 53.3565ZM158.239 54.6349L158.713 55.5154L158.717 55.5133L158.239 54.6349ZM152.273 97V98H153.273V97H152.273ZM140.418 97V42.4545H138.418V97H140.418ZM139.418 43.4545H151.882V41.4545H139.418V43.4545ZM150.882 42.4545V51.5455H152.882V42.4545H150.882ZM151.882 52.5455H152.45V50.5455H151.882V52.5455ZM153.404 51.8466C154.34 48.8807 155.925 46.6463 158.141 45.0826L156.987 43.4487C154.373 45.294 152.549 47.9128 151.497 51.2443L153.404 51.8466ZM158.142 45.0815C160.404 43.4787 162.981 42.6733 165.909 42.6733V40.6733C162.587 40.6733 159.601 41.5961 156.986 43.4498L158.142 45.0815ZM165.909 42.6733C166.587 42.6733 167.352 42.7072 168.208 42.7766L168.369 40.7831C167.472 40.7104 166.652 40.6733 165.909 40.6733V42.6733ZM168.236 42.7784C169.108 42.8244 169.802 42.9035 170.329 43.009L170.722 41.0478C170.066 40.9166 169.268 40.83 168.341 40.7812L168.236 42.7784ZM169.526 42.0284V53.8537H171.526V42.0284H169.526ZM170.854 52.9092C170.202 52.6825 169.249 52.5072 168.052 52.3637L167.814 54.3494C168.985 54.4899 169.76 54.6461 170.197 54.7982L170.854 52.9092ZM168.075 52.3666C166.871 52.1947 165.699 52.108 164.56 52.108V54.108C165.598 54.108 166.675 54.187 167.792 54.3465L168.075 52.3666ZM164.56 52.108C162.066 52.108 159.792 52.651 157.761 53.7566L158.717 55.5133C160.426 54.5829 162.366 54.108 164.56 54.108V52.108ZM157.765 53.7545C155.762 54.8329 154.172 56.3434 153.013 58.2753L154.728 59.3043C155.7 57.685 157.022 56.4256 158.713 55.5154L157.765 53.7545ZM153.013 58.2753C151.844 60.2244 151.273 62.4543 151.273 64.9332H153.273C153.273 62.772 153.767 60.9063 154.728 59.3043L153.013 58.2753ZM151.273 64.9332V97H153.273V64.9332H151.273ZM152.273 96H139.418V98H152.273V96ZM213.832 42.4545V41.4545H212.832V42.4545H213.832ZM226.687 42.4545H227.687V41.4545H226.687V42.4545ZM226.687 97V98H227.687V97H226.687ZM214.222 97H213.222V98H214.222V97ZM214.222 87.3054H215.222V86.3054H214.222V87.3054ZM213.654 87.3054V86.3054H212.979L212.727 86.9315L213.654 87.3054ZM207.582 94.7983L207.014 93.9749L207.011 93.9771L207.582 94.7983ZM187.766 95.331L187.257 96.1918L187.266 96.1969L187.766 95.331ZM181.374 88.3352L180.48 88.7824L180.481 88.7852L181.374 88.3352ZM179.066 42.4545V41.4545H178.066V42.4545H179.066ZM191.921 42.4545H192.921V41.4545H191.921V42.4545ZM194.762 83.4347L194.03 84.1158H194.03L194.762 83.4347ZM207.724 85.1037L207.262 84.2165L207.724 85.1037ZM212.092 80.9844L211.245 80.4524L211.243 80.4554L212.092 80.9844ZM214.832 74.0597V42.4545H212.832V74.0597H214.832ZM213.832 43.4545H226.687V41.4545H213.832V43.4545ZM225.687 42.4545V97H227.687V42.4545H225.687ZM226.687 96H214.222V98H226.687V96ZM215.222 97V87.3054H213.222V97H215.222ZM214.222 86.3054H213.654V88.3054H214.222V86.3054ZM212.727 86.9315C211.572 89.7962 209.677 92.1403 207.014 93.9749L208.149 95.6217C211.121 93.5737 213.274 90.9225 214.582 87.6793L212.727 86.9315ZM207.011 93.9771C204.417 95.7799 201.182 96.7102 197.248 96.7102V98.7102C201.505 98.7102 205.16 97.6992 208.152 95.6195L207.011 93.9771ZM197.248 96.7102C193.826 96.7102 190.842 95.9526 188.266 94.465L187.266 96.1969C190.183 97.8816 193.52 98.7102 197.248 98.7102V96.7102ZM188.275 94.4702C185.731 92.9656 183.727 90.7828 182.267 87.8852L180.481 88.7852C182.099 91.9956 184.357 94.4766 187.257 96.1917L188.275 94.4702ZM182.269 87.888C180.815 84.9812 180.066 81.4256 180.066 77.1847H178.066C178.066 81.6558 178.856 85.534 180.48 88.7824L182.269 87.888ZM180.066 77.1847V42.4545H178.066V77.1847H180.066ZM179.066 43.4545H191.921V41.4545H179.066V43.4545ZM190.921 42.4545V75.196H192.921V42.4545H190.921ZM190.921 75.196C190.921 78.8409 191.925 81.8525 194.03 84.1158L195.494 82.7536C193.812 80.9448 192.921 78.464 192.921 75.196H190.921ZM194.03 84.1158C196.134 86.378 198.897 87.4886 202.219 87.4886V85.4886C199.387 85.4886 197.178 84.5633 195.494 82.7536L194.03 84.1158ZM202.219 87.4886C204.283 87.4886 206.275 86.984 208.185 85.9909L207.262 84.2165C205.621 85.07 203.944 85.4886 202.219 85.4886V87.4886ZM208.185 85.9909C210.131 84.979 211.716 83.4767 212.94 81.5134L211.243 80.4554C210.194 82.1379 208.867 83.3818 207.262 84.2165L208.185 85.9909ZM212.938 81.5163C214.222 79.4725 214.832 76.9674 214.832 74.0597H212.832C212.832 76.6917 212.281 78.8031 211.245 80.4524L212.938 81.5163ZM239.906 97H238.906V98H239.906V97ZM239.906 42.4545V41.4545H238.906V42.4545H239.906ZM252.761 42.4545H253.761V41.4545H252.761V42.4545ZM252.761 97V98H253.761V97H252.761ZM241.113 32.6889L240.43 33.4192L240.436 33.4251L241.113 32.6889ZM241.113 22.8168L241.79 23.553L241.796 23.547L241.113 22.8168ZM251.625 22.8168L250.936 23.5415L250.942 23.5472L250.948 23.5529L251.625 22.8168ZM251.625 32.6889L252.307 33.4196L252.308 33.4192L251.625 32.6889ZM240.906 97V42.4545H238.906V97H240.906ZM239.906 43.4545H252.761V41.4545H239.906V43.4545ZM251.761 42.4545V97H253.761V42.4545H251.761ZM252.761 96H239.906V98H252.761V96ZM246.369 33.7131C244.578 33.7131 243.069 33.1286 241.79 31.9528L240.436 33.4251C242.093 34.9481 244.088 35.7131 246.369 35.7131V33.7131ZM241.796 31.9586C240.52 30.7644 239.912 29.379 239.912 27.7528H237.912C237.912 29.9619 238.771 31.8672 240.43 33.4192L241.796 31.9586ZM239.912 27.7528C239.912 26.0998 240.522 24.7188 241.79 23.5529L240.436 22.0806C238.769 23.6136 237.912 25.5233 237.912 27.7528H239.912ZM241.796 23.547C243.076 22.3497 244.583 21.7571 246.369 21.7571V19.7571C244.083 19.7571 242.086 20.5376 240.43 22.0865L241.796 23.547ZM246.369 21.7571C248.182 21.7571 249.684 22.3516 250.936 23.5415L252.314 22.0921C250.677 20.5357 248.676 19.7571 246.369 19.7571V21.7571ZM250.948 23.5529C252.216 24.7188 252.826 26.0998 252.826 27.7528H254.826C254.826 25.5233 253.969 23.6136 252.301 22.0806L250.948 23.5529ZM252.826 27.7528C252.826 29.379 252.218 30.7644 250.941 31.9586L252.308 33.4192C253.967 31.8672 254.826 29.9619 254.826 27.7528H252.826ZM250.942 31.9583C249.691 33.1268 248.187 33.7131 246.369 33.7131V35.7131C248.67 35.7131 250.67 34.95 252.307 33.4196L250.942 31.9583ZM293.217 42.4545H294.217V41.4545H293.217V42.4545ZM293.217 52.3977V53.3977H294.217V52.3977H293.217ZM261.861 52.3977H260.861V53.3977H261.861V52.3977ZM261.861 42.4545V41.4545H260.861V42.4545H261.861ZM269.602 29.3864V28.3864H268.602V29.3864H269.602ZM282.457 29.3864H283.457V28.3864H282.457V29.3864ZM283.239 84.571L282.368 85.0623L282.375 85.0757L282.383 85.0888L283.239 84.571ZM285.369 86.4176L285.015 87.3529L285.369 86.4176ZM290.483 86.7372L290.313 85.7517L290.307 85.7528L290.483 86.7372ZM292.045 86.4176L293.023 86.2069L292.802 85.181L291.788 85.4514L292.045 86.4176ZM294.212 96.4673L294.538 97.4127L295.376 97.1236L295.189 96.2566L294.212 96.4673ZM291.264 97.2486L291.047 96.2724L291.043 96.2733L291.264 97.2486ZM286.648 97.7457L286.622 96.7461L286.618 96.7462L286.648 97.7457ZM277.947 96.2898L277.559 97.2111L277.566 97.2141L277.947 96.2898ZM271.804 91.2472L270.968 91.7958L270.972 91.8019L271.804 91.2472ZM269.602 82.7244L270.602 82.7314V82.7244H269.602ZM292.217 42.4545V52.3977H294.217V42.4545H292.217ZM293.217 51.3977H261.861V53.3977H293.217V51.3977ZM262.861 52.3977V42.4545H260.861V52.3977H262.861ZM261.861 43.4545H293.217V41.4545H261.861V43.4545ZM269.602 30.3864H282.457V28.3864H269.602V30.3864ZM281.457 29.3864V80.5938H283.457V29.3864H281.457ZM281.457 80.5938C281.457 82.3972 281.725 83.9227 282.368 85.0623L284.11 84.0797C283.711 83.3727 283.457 82.2468 283.457 80.5938H281.457ZM282.383 85.0888C283.028 86.155 283.905 86.9326 285.015 87.3529L285.723 85.4823C285.082 85.2397 284.538 84.7863 284.094 84.0532L282.383 85.0888ZM285.015 87.3529C286.019 87.7326 287.111 87.9148 288.281 87.9148V85.9148C287.32 85.9148 286.472 85.7655 285.723 85.4823L285.015 87.3529ZM288.281 87.9148C289.134 87.9148 289.928 87.8521 290.659 87.7216L290.307 85.7528C289.712 85.859 289.038 85.9148 288.281 85.9148V87.9148ZM290.653 87.7227C291.348 87.6029 291.904 87.4903 292.303 87.3839L291.788 85.4514C291.477 85.5343 290.991 85.6348 290.313 85.7518L290.653 87.7227ZM291.068 86.6283L293.234 96.678L295.189 96.2566L293.023 86.2069L291.068 86.6283ZM293.886 95.522C293.252 95.7403 292.313 95.9911 291.047 96.2724L291.481 98.2248C292.772 97.9379 293.798 97.6678 294.538 97.4127L293.886 95.522ZM291.043 96.2733C289.873 96.5383 288.404 96.6998 286.622 96.7461L286.674 98.7454C288.537 98.697 290.146 98.5271 291.485 98.2239L291.043 96.2733ZM286.618 96.7462C283.518 96.8374 280.761 96.3694 278.329 95.3654L277.566 97.2141C280.295 98.3408 283.338 98.8435 286.677 98.7453L286.618 96.7462ZM278.336 95.3685C275.931 94.3535 274.04 92.7979 272.636 90.6925L270.972 91.8019C272.599 94.2419 274.803 96.048 277.559 97.2111L278.336 95.3685ZM272.64 90.6985C271.281 88.6282 270.58 85.9933 270.602 82.7314L268.602 82.7175C268.578 86.2737 269.344 89.3206 270.968 91.7958L272.64 90.6985ZM270.602 82.7244V29.3864H268.602V82.7244H270.602ZM371.884 56.8722L371.992 57.8663L373.067 57.749L372.867 56.6867L371.884 56.8722ZM360.165 58.1506L359.202 58.4202L359.431 59.2366L360.274 59.1447L360.165 58.1506ZM358.425 54.8125L357.634 55.424L357.642 55.435L358.425 54.8125ZM355.158 52.2912L355.58 51.3846L355.158 52.2912ZM343.368 53.0724L342.831 52.2288L342.826 52.232L343.368 53.0724ZM340.705 57.5824L341.705 57.5973L341.705 57.5834L341.705 57.5696L340.705 57.5824ZM342.445 61.4531L341.802 62.2189L341.809 62.2251L342.445 61.4531ZM348.411 63.9034L348.186 64.8778L348.194 64.8796L348.202 64.8813L348.411 63.9034ZM357.715 65.892L357.926 64.9145L357.924 64.9141L357.715 65.892ZM369.221 71.1832L368.527 71.9038L368.531 71.9071L369.221 71.1832ZM373.056 80.6648L374.056 80.6717L374.056 80.6587L373.056 80.6648ZM370.037 89.7557L369.24 89.1522L369.239 89.1534L370.037 89.7557ZM361.834 95.8636L362.221 96.786L361.834 95.8636ZM333.638 93.875L333.069 94.6974L333.072 94.6996L333.638 93.875ZM326.358 82.1207L326.262 81.1253L325.207 81.227L325.37 82.2745L326.358 82.1207ZM338.894 80.9134L339.868 80.6885L339.671 79.8339L338.798 79.918L338.894 80.9134ZM342.516 86.4886L343.078 85.6615L342.516 86.4886ZM357.076 86.4886L356.518 85.6582L356.514 85.6615L357.076 86.4886ZM358.07 77.9659L357.418 78.7241L357.425 78.7304L358.07 77.9659ZM352.53 75.6222L352.742 74.6449L352.736 74.6435L352.53 75.6222ZM343.226 73.669L343.432 72.6904L343.43 72.69L343.226 73.669ZM331.614 68.1648L330.894 68.8587L330.897 68.8619L331.614 68.1648ZM327.885 58.2926L328.885 58.2986L328.885 58.2856L327.885 58.2926ZM330.62 49.5568L329.821 48.9556L329.82 48.9568L330.62 49.5568ZM338.397 43.804L338.774 44.7302L338.777 44.7288L338.397 43.804ZM365.03 45.8281L364.434 46.6312L364.437 46.6331L365.03 45.8281ZM371.775 55.8781L360.057 57.1565L360.274 59.1447L371.992 57.8663L371.775 55.8781ZM361.128 57.8809C360.758 56.5584 360.112 55.3273 359.208 54.19L357.642 55.435C358.395 56.381 358.91 57.3753 359.202 58.4202L361.128 57.8809ZM359.216 54.2011C358.3 53.0151 357.076 52.0811 355.58 51.3846L354.736 53.1978C355.986 53.7797 356.94 54.5266 357.634 55.4239L359.216 54.2011ZM355.58 51.3846C354.04 50.6678 352.206 50.3324 350.115 50.3324V52.3324C352.002 52.3324 353.53 52.6362 354.736 53.1978L355.58 51.3846ZM350.115 50.3324C347.295 50.3324 344.849 50.9448 342.831 52.2288L343.905 53.9161C345.533 52.88 347.585 52.3324 350.115 52.3324V50.3324ZM342.826 52.232C340.792 53.5437 339.676 55.3445 339.705 57.5952L341.705 57.5696C341.686 56.1271 342.346 54.9213 343.91 53.9129L342.826 52.232ZM339.705 57.5675C339.677 59.4451 340.381 61.0254 341.802 62.2188L343.088 60.6874C342.142 59.8923 341.685 58.892 341.705 57.5973L339.705 57.5675ZM341.809 62.2251C343.198 63.3684 345.369 64.2278 348.186 64.8778L348.636 62.929C345.913 62.3006 344.107 61.5264 343.081 60.6812L341.809 62.2251ZM348.202 64.8813L357.506 66.87L357.924 64.9141L348.62 62.9255L348.202 64.8813ZM357.504 66.8696C362.57 67.9619 366.204 69.6681 368.527 71.9038L369.914 70.4627C367.218 67.8689 363.181 66.0476 357.926 64.9145L357.504 66.8696ZM368.531 71.9071C370.843 74.1119 372.034 77.0013 372.056 80.6708L374.056 80.6587C374.031 76.5158 372.664 73.0841 369.911 70.4594L368.531 71.9071ZM372.056 80.6579C372.034 83.8848 371.093 86.7037 369.24 89.1522L370.835 90.3591C372.959 87.5519 374.031 84.3103 374.056 80.6717L372.056 80.6579ZM369.239 89.1534C367.397 91.5945 364.816 93.5305 361.448 94.9413L362.221 96.786C365.86 95.2612 368.748 93.1252 370.836 90.358L369.239 89.1534ZM361.448 94.9413C358.088 96.3488 354.199 97.0653 349.76 97.0653V99.0653C354.413 99.0653 358.573 98.3141 362.221 96.786L361.448 94.9413ZM349.76 97.0653C343.217 97.0653 338.06 95.6958 334.204 93.0504L333.072 94.6996C337.36 97.6413 342.952 99.0653 349.76 99.0653V97.0653ZM334.207 93.0526C330.367 90.3959 328.087 86.7229 327.346 81.9669L325.37 82.2745C326.192 87.5565 328.765 91.7197 333.069 94.6974L334.207 93.0526ZM326.454 83.1161L338.99 81.9087L338.798 79.918L326.262 81.1253L326.454 83.1161ZM337.919 81.1382C338.536 83.811 339.871 85.9005 341.954 87.3158L343.078 85.6615C341.468 84.5673 340.388 82.9399 339.868 80.6885L337.919 81.1382ZM341.954 87.3158C344.012 88.7145 346.629 89.3707 349.725 89.3707V87.3707C346.902 87.3707 344.713 86.7722 343.078 85.6615L341.954 87.3158ZM349.725 89.3707C352.907 89.3707 355.574 88.7177 357.638 87.3158L356.514 85.6615C354.884 86.7691 352.65 87.3707 349.725 87.3707V89.3707ZM357.633 87.3191C359.71 85.9252 360.881 84.0923 360.881 81.8366H358.881C358.881 83.2742 358.181 84.5426 356.519 85.6582L357.633 87.3191ZM360.881 81.8366C360.881 79.9757 360.145 78.407 358.715 77.2014L357.425 78.7304C358.41 79.5608 358.881 80.5725 358.881 81.8366H360.881ZM358.722 77.2077C357.356 76.0326 355.321 75.2045 352.742 74.6449L352.318 76.5994C354.758 77.1288 356.417 77.8632 357.418 78.7241L358.722 77.2077ZM352.736 74.6435L343.432 72.6904L343.021 74.6477L352.325 76.6008L352.736 74.6435ZM343.43 72.69C338.304 71.6231 334.649 69.8513 332.331 67.4676L330.897 68.8619C333.598 71.6393 337.684 73.537 343.022 74.648L343.43 72.69ZM332.334 67.4709C330.024 65.0741 328.863 62.0435 328.885 58.2986L326.885 58.2867C326.86 62.4963 328.185 66.0471 330.894 68.8587L332.334 67.4709ZM328.885 58.2856C328.863 55.1212 329.717 52.4275 331.42 50.1568L329.82 48.9568C327.83 51.6103 326.86 54.7405 326.885 58.2997L328.885 58.2856ZM331.419 50.158C333.165 47.8373 335.601 46.0218 338.774 44.7302L338.02 42.8778C334.563 44.285 331.815 46.3047 329.821 48.9556L331.419 50.158ZM338.777 44.7288C341.972 43.4145 345.686 42.7443 349.938 42.7443V40.7443C345.478 40.7443 341.497 41.4473 338.016 42.8792L338.777 44.7288ZM349.938 42.7443C356.199 42.7443 360.994 44.0787 364.434 46.6312L365.626 45.025C361.727 42.1325 356.461 40.7443 349.938 40.7443V42.7443ZM364.437 46.6331C367.92 49.2009 370.071 52.6577 370.901 57.0577L372.867 56.6867C371.945 51.8063 369.527 47.9004 365.624 45.0232L364.437 46.6331ZM396.511 97V98H397.511V97H396.511ZM383.656 97H382.656V98H383.656V97ZM383.656 24.2727V23.2727H382.656V24.2727H383.656ZM396.227 24.2727H397.227V23.2727H396.227V24.2727ZM396.227 51.723H395.227V52.723H396.227V51.723ZM396.866 51.723V52.723H397.534L397.79 52.1066L396.866 51.723ZM402.797 44.4432L403.35 45.2764L403.351 45.2752L402.797 44.4432ZM423.003 44.1236L423.493 43.2522V43.2522L423.003 44.1236ZM429.537 51.0838L428.644 51.5338L428.646 51.5393L429.537 51.0838ZM431.88 97V98H432.88V97H431.88ZM419.025 97H418.025V98H419.025V97ZM416.184 55.7003L415.444 56.3726L415.452 56.3814L416.184 55.7003ZM402.193 54.1023L402.673 54.9797L402.677 54.9775L402.193 54.1023ZM398.002 58.3281L397.127 57.8453L397.122 57.854L398.002 58.3281ZM395.511 65.0398V97H397.511V65.0398H395.511ZM396.511 96H383.656V98H396.511V96ZM384.656 97V24.2727H382.656V97H384.656ZM383.656 25.2727H396.227V23.2727H383.656V25.2727ZM395.227 24.2727V51.723H397.227V24.2727H395.227ZM396.227 52.723H396.866V50.723H396.227V52.723ZM397.79 52.1066C398.995 49.2049 400.846 46.9378 403.35 45.2764L402.244 43.61C399.396 45.4997 397.294 48.0858 395.943 51.3394L397.79 52.1066ZM403.351 45.2752C405.845 43.6128 409.07 42.7443 413.095 42.7443V40.7443C408.786 40.7443 405.146 41.6751 402.242 43.6111L403.351 45.2752ZM413.095 42.7443C416.741 42.7443 419.868 43.5066 422.512 44.995L423.493 43.2522C420.502 41.5682 417.025 40.7443 413.095 40.7443V42.7443ZM422.512 44.995C425.146 46.478 427.189 48.6463 428.644 51.5338L430.43 50.6338C428.807 47.4133 426.494 44.9415 423.493 43.2522L422.512 44.995ZM428.646 51.5393C430.119 54.418 430.88 57.9813 430.88 62.2699H432.88C432.88 57.7517 432.079 53.8576 430.427 50.6283L428.646 51.5393ZM430.88 62.2699V97H432.88V62.2699H430.88ZM431.88 96H419.025V98H431.88V96ZM420.025 97V64.2585H418.025V97H420.025ZM420.025 64.2585C420.025 60.4191 419.032 57.293 416.917 55.0192L415.452 56.3814C417.125 58.1795 418.025 60.7589 418.025 64.2585H420.025ZM416.925 55.028C414.824 52.7152 411.902 51.6108 408.301 51.6108V53.6108C411.47 53.6108 413.804 54.566 415.444 56.3725L416.925 55.028ZM408.301 51.6108C405.877 51.6108 403.672 52.1425 401.709 53.227L402.677 54.9775C404.312 54.0734 406.179 53.6108 408.301 53.6108V51.6108ZM401.713 53.2248C399.763 54.2906 398.232 55.8396 397.127 57.8453L398.878 58.8109C399.808 57.1235 401.071 55.8552 402.672 54.9797L401.713 53.2248ZM397.122 57.854C396.032 59.8787 395.511 62.2875 395.511 65.0398H397.511C397.511 62.5363 397.984 60.4708 398.883 58.8022L397.122 57.854ZM454.927 94.5497L454.413 95.4072L454.927 94.5497ZM445.836 84.7131L444.944 85.1643L444.946 85.1683L445.836 84.7131ZM445.836 55.1321L444.945 54.6789L444.943 54.6829L445.836 55.1321ZM454.927 45.2599L455.442 46.1174L454.927 45.2599ZM482.626 45.2599L482.112 46.1174L482.626 45.2599ZM491.681 55.1321L490.788 55.5813L490.79 55.5853L491.681 55.1321ZM491.681 84.7131L490.791 84.2579L490.789 84.2618L491.681 84.7131ZM482.626 94.5497L482.112 93.6922L482.626 94.5497ZM476.092 85.3878L476.725 86.1622L476.73 86.1575L476.092 85.3878ZM480.424 78.9247L479.483 78.5863L479.481 78.5936L480.424 78.9247ZM480.424 60.8494L479.48 61.178L479.483 61.1879L480.424 60.8494ZM476.092 54.3508L476.73 53.5811L476.092 54.3508ZM461.461 54.3508L460.828 53.5773L460.823 53.5811L461.461 54.3508ZM457.093 60.8494L456.151 60.5136L456.15 60.5183L457.093 60.8494ZM457.093 78.9247L456.15 79.2558L456.152 79.2631L457.093 78.9247ZM461.461 85.3878L460.823 86.1576L460.833 86.1659L461.461 85.3878ZM468.777 97.0653C463.6 97.0653 459.168 95.9279 455.442 93.6922L454.413 95.4072C458.499 97.859 463.3 99.0653 468.777 99.0653V97.0653ZM455.442 93.6922C451.702 91.4486 448.799 88.3121 446.727 84.2579L444.946 85.1683C447.182 89.5421 450.34 92.9633 454.413 95.4072L455.442 93.6922ZM446.729 84.2618C444.681 80.2123 443.64 75.4481 443.64 69.9403H441.64C441.64 75.7015 442.73 80.7858 444.944 85.1643L446.729 84.2618ZM443.64 69.9403C443.64 64.4328 444.681 59.6558 446.73 55.5813L444.943 54.6829C442.73 59.0838 441.64 64.179 441.64 69.9403H443.64ZM446.728 55.5853C448.801 51.5074 451.704 48.3602 455.442 46.1174L454.413 44.4025C450.338 46.8472 447.18 50.2814 444.945 54.6789L446.728 55.5853ZM455.442 46.1174C459.168 43.8817 463.6 42.7443 468.777 42.7443V40.7443C463.3 40.7443 458.499 41.9507 454.413 44.4025L455.442 46.1174ZM468.777 42.7443C473.953 42.7443 478.385 43.8817 482.112 46.1174L483.141 44.4025C479.054 41.9507 474.254 40.7443 468.777 40.7443V42.7443ZM482.112 46.1174C485.848 48.3596 488.739 51.5055 490.788 55.5813L492.575 54.6829C490.363 50.2833 487.216 46.8478 483.141 44.4025L482.112 46.1174ZM490.79 55.5853C492.861 59.6588 493.913 64.4343 493.913 69.9403H495.913C495.913 64.1774 494.811 59.0808 492.573 54.6789L490.79 55.5853ZM493.913 69.9403C493.913 75.4465 492.861 80.2092 490.791 84.2579L492.572 85.1683C494.811 80.7889 495.913 75.7031 495.913 69.9403H493.913ZM490.789 84.2618C488.74 88.314 485.85 91.4492 482.112 93.6922L483.141 95.4072C487.215 92.9627 490.361 89.5402 492.574 85.1643L490.789 84.2618ZM482.112 93.6922C478.385 95.9279 473.953 97.0653 468.777 97.0653V99.0653C474.254 99.0653 479.054 97.859 483.141 95.4072L482.112 93.6922ZM468.848 88.767C471.93 88.767 474.578 87.916 476.725 86.1622L475.459 84.6134C473.723 86.0319 471.542 86.767 468.848 86.767V88.767ZM476.73 86.1575C478.829 84.417 480.369 82.1024 481.368 79.2558L479.481 78.5936C478.586 81.1447 477.237 83.1389 475.454 84.618L476.73 86.1575ZM481.365 79.2631C482.381 76.4403 482.88 73.3169 482.88 69.9048H480.88C480.88 73.1215 480.409 76.0114 479.483 78.5863L481.365 79.2631ZM482.88 69.9048C482.88 66.4699 482.381 63.3346 481.365 60.511L479.483 61.1879C480.409 63.762 480.88 66.6636 480.88 69.9048H482.88ZM481.369 60.5209C480.371 57.6512 478.831 55.3232 476.73 53.5811L475.454 55.1206C477.235 56.5982 478.584 58.6025 479.48 61.178L481.369 60.5209ZM476.73 53.5811C474.584 51.8011 471.933 50.9361 468.848 50.9361V52.9361C471.539 52.9361 473.718 53.6809 475.454 55.1206L476.73 53.5811ZM468.848 50.9361C465.697 50.9361 463 51.7975 460.828 53.5773L462.095 55.1244C463.853 53.6845 466.079 52.9361 468.848 52.9361V50.9361ZM460.823 53.5811C458.724 55.3216 457.173 57.6469 456.151 60.5136L458.035 61.1852C458.955 58.6068 460.316 56.5998 462.1 55.1206L460.823 53.5811ZM456.15 60.5183C455.16 63.3397 454.673 66.4725 454.673 69.9048H456.673C456.673 66.6611 457.133 63.7569 458.037 61.1805L456.15 60.5183ZM454.673 69.9048C454.673 73.3144 455.16 76.4351 456.15 79.2558L458.037 78.5936C457.133 76.0166 456.673 73.124 456.673 69.9048H454.673ZM456.152 79.2631C457.175 82.1067 458.726 84.4186 460.823 86.1575L462.1 84.618C460.314 83.1373 458.953 81.1404 458.034 78.5863L456.152 79.2631ZM460.833 86.1659C463.006 87.9195 465.701 88.767 468.848 88.767V86.767C466.076 86.767 463.847 86.0284 462.089 84.6097L460.833 86.1659ZM505.824 117.455H504.824V118.455H505.824V117.455ZM505.824 42.4545V41.4545H504.824V42.4545H505.824ZM518.466 42.4545H519.466V41.4545H518.466V42.4545ZM518.466 51.4744H517.466V52.4744H518.466V51.4744ZM519.212 51.4744V52.4744H519.83L520.106 51.9216L519.212 51.4744ZM522.017 47.2486L522.794 47.8778L522.799 47.8718L522.017 47.2486ZM526.918 43.3778L527.377 44.2661L527.385 44.2619L526.918 43.3778ZM546.2 44.9758L545.663 45.8195L545.67 45.8238L546.2 44.9758ZM554.297 54.4574L553.393 54.8861L553.396 54.8923L554.297 54.4574ZM554.368 85.0682L553.462 84.6436L554.368 85.0682ZM546.342 94.6562L546.888 95.4946L546.342 94.6562ZM527.06 96.3963L526.608 97.2887L527.06 96.3963ZM522.088 92.6321L521.317 93.2687L521.322 93.2753L521.328 93.2819L522.088 92.6321ZM519.212 88.4062L520.1 87.9464L519.82 87.4062H519.212V88.4062ZM518.679 88.4062V87.4062H517.679V88.4062H518.679ZM518.679 117.455V118.455H519.679V117.455H518.679ZM519.922 78.9957L518.986 79.3469L518.988 79.3542L519.922 78.9957ZM524.29 85.2102L523.671 85.9959L523.682 86.0043L524.29 85.2102ZM538.388 85.1392L539.008 85.9239L539.014 85.9191L538.388 85.1392ZM542.72 78.8537L541.783 78.5053L541.781 78.5099L542.72 78.8537ZM542.756 60.7074L543.694 60.3609L542.756 60.7074ZM538.423 54.5284L539.037 53.7391L538.423 54.5284ZM524.254 54.4574L524.856 55.2562L524.254 54.4574ZM519.886 60.5298L518.952 60.1731L518.949 60.1806L519.886 60.5298ZM506.824 117.455V42.4545H504.824V117.455H506.824ZM505.824 43.4545H518.466V41.4545H505.824V43.4545ZM517.466 42.4545V51.4744H519.466V42.4545H517.466ZM518.466 52.4744H519.212V50.4744H518.466V52.4744ZM520.106 51.9216C520.729 50.6763 521.62 49.3285 522.794 47.8778L521.24 46.6194C519.999 48.1516 519.02 49.621 518.317 51.0272L520.106 51.9216ZM522.799 47.8718C523.903 46.4862 525.418 45.2793 527.377 44.2661L526.458 42.4896C524.298 43.6071 522.546 44.9807 521.235 46.6254L522.799 47.8718ZM527.385 44.2619C529.257 43.272 531.71 42.7443 534.801 42.7443V40.7443C531.5 40.7443 528.697 41.3056 526.45 42.4938L527.385 44.2619ZM534.801 42.7443C538.835 42.7443 542.447 43.7725 545.663 45.8195L546.737 44.1322C543.183 41.8705 539.195 40.7443 534.801 40.7443V42.7443ZM545.67 45.8238C548.894 47.8385 551.474 50.8412 553.393 54.8861L555.2 54.0286C553.143 49.6929 550.325 46.3746 546.73 44.1279L545.67 45.8238ZM553.396 54.8923C555.326 58.8881 556.315 63.8435 556.315 69.7983H558.315C558.315 63.6319 557.292 58.36 555.197 54.0225L553.396 54.8923ZM556.315 69.7983C556.315 75.6826 555.35 80.6192 553.462 84.6436L555.273 85.4927C557.316 81.1365 558.315 75.8931 558.315 69.7983H556.315ZM553.462 84.6436C551.565 88.6904 549.004 91.732 545.797 93.8179L546.888 95.4946C550.451 93.177 553.241 89.8267 555.273 85.4927L553.462 84.6436ZM545.797 93.8179C542.584 95.9076 538.941 96.9588 534.837 96.9588V98.9588C539.303 98.9588 543.33 97.8083 546.888 95.4946L545.797 93.8179ZM534.837 96.9588C531.816 96.9588 529.39 96.4543 527.511 95.5039L526.608 97.2887C528.848 98.4216 531.608 98.9588 534.837 98.9588V96.9588ZM527.511 95.5039C525.547 94.5105 524.002 93.3321 522.848 91.9823L521.328 93.2819C522.684 94.8678 524.453 96.1988 526.608 97.2887L527.511 95.5039ZM522.859 91.9955C521.661 90.5436 520.746 89.194 520.1 87.9464L518.324 88.8661C519.051 90.27 520.053 91.7377 521.317 93.2687L522.859 91.9955ZM519.212 87.4062H518.679V89.4062H519.212V87.4062ZM517.679 88.4062V117.455H519.679V88.4062H517.679ZM518.679 116.455H505.824V118.455H518.679V116.455ZM517.43 69.7273C517.43 73.3463 517.94 76.5593 518.986 79.3469L520.858 78.6446C519.915 76.1292 519.43 73.1632 519.43 69.7273H517.43ZM518.988 79.3542C520.059 82.1436 521.612 84.3745 523.671 85.9959L524.908 84.4246C523.18 83.063 521.82 81.1509 520.855 78.6373L518.988 79.3542ZM523.682 86.0043C525.796 87.6225 528.337 88.4119 531.25 88.4119V86.4119C528.718 86.4119 526.619 85.7336 524.898 84.4161L523.682 86.0043ZM531.25 88.4119C534.278 88.4119 536.886 87.6004 539.008 85.9238L537.768 84.3546C536.055 85.7083 533.904 86.4119 531.25 86.4119V88.4119ZM539.014 85.9191C541.094 84.2501 542.635 81.9943 543.659 79.1975L541.781 78.5099C540.864 81.0161 539.517 82.9507 537.762 84.3593L539.014 85.9191ZM543.658 79.2021C544.7 76.3961 545.212 73.2327 545.212 69.7273H543.212C543.212 73.04 542.729 75.9609 541.783 78.5053L543.658 79.2021ZM545.212 69.7273C545.212 66.2475 544.713 63.1201 543.694 60.3609L541.818 61.0539C542.74 63.5504 543.212 66.4362 543.212 69.7273H545.212ZM543.694 60.3609C542.669 57.5854 541.124 55.3617 539.037 53.7391L537.809 55.3178C539.558 56.6781 540.902 58.5737 541.818 61.0539L543.694 60.3609ZM539.037 53.7391C536.914 52.0877 534.296 51.2912 531.25 51.2912V53.2912C533.934 53.2912 536.097 53.9862 537.809 55.3178L539.037 53.7391ZM531.25 51.2912C528.319 51.2912 525.768 52.0655 523.653 53.6586L524.856 55.2562C526.576 53.961 528.688 53.2912 531.25 53.2912V51.2912ZM523.653 53.6586C521.562 55.2331 520.003 57.4221 518.952 60.1731L520.821 60.8865C521.759 58.4292 523.111 56.5699 524.856 55.2562L523.653 53.6586ZM518.949 60.1806C517.928 62.922 517.43 66.1113 517.43 69.7273H519.43C519.43 66.2884 519.904 63.346 520.823 60.8791L518.949 60.1806Z" fill="#6AB10A" fill-opacity="0.5" mask="url(#path-40-outside-1_11_213)"/>
<path d="M468.5 99.3193C484.24 99.3193 497 86.0402 497 69.6597C497 53.2791 484.24 40 468.5 40C452.76 40 440 53.2791 440 69.6597C440 86.0402 452.76 99.3193 468.5 99.3193Z" fill="#DDE9AF"/>
<path fill-rule="evenodd" clip-rule="evenodd" d="M466.124 71.0549C466.124 71.0549 460.457 71.5061 457.947 70.3784C455.138 69.1164 451.141 63.9676 451.141 63.9676C451.141 63.9676 458.551 62.0703 461.064 63.4329C463.696 64.8598 465.598 68.8292 466.124 71.0549Z" fill="#88AA00"/>
<path fill-rule="evenodd" clip-rule="evenodd" d="M468.097 70.9785C468.829 68.3857 466.871 64.3839 468.097 62.7138C468.466 62.3141 469.337 62.1215 469.687 62.5398C469.486 64.5988 469.402 68.7503 470.481 70.8046C469.669 71.0056 468.807 71.6265 468.097 70.9785Z" fill="#C87137"/>
<path fill-rule="evenodd" clip-rule="evenodd" d="M471.896 72.2426C468.597 72.3005 465.76 73.0554 463.666 75.1366C461.658 77.1321 461.725 80.5529 460.639 83.2119C458.672 88.0265 455.984 91.0486 454.383 95.4005C458.682 97.9615 463.547 99.3126 468.5 99.3204C474.437 99.3072 480.221 97.365 485.045 93.7652C484.115 90.952 481.831 88.0948 480.146 85.3098C477.478 80.8995 477.104 72.1774 471.896 72.2426Z" fill="#BCD35F"/>
<path d="M246 18.5C241.03 18.5 237 22.5295 237 27.5C237 32.4705 241.03 36.5 246 36.5C250.97 36.5 255 32.4705 255 27.5C255 22.5295 250.97 18.5 246 18.5Z" fill="#D13834"/>
<path d="M247.216 28.255C247.339 28.3742 247.342 28.5707 247.223 28.6939C247.104 28.8171 246.908 28.8205 246.785 28.7016C246.661 28.5825 246.211 27.955 246.33 27.8317C246.449 27.7082 247.092 28.1359 247.216 28.255Z" fill="#ED7161"/>
<path d="M245.244 28.7148C245.125 28.838 244.929 28.8414 244.805 28.7226C244.682 28.6034 244.679 28.4069 244.798 28.2837C244.917 28.1602 245.544 27.7105 245.667 27.8294C245.791 27.9486 245.363 28.5916 245.244 28.7148Z" fill="#ED7161"/>
<path d="M244.784 26.7435C244.661 26.6243 244.658 26.4279 244.777 26.3047C244.896 26.1815 245.092 26.178 245.216 26.2969C245.339 26.4161 245.789 27.0436 245.67 27.1668C245.551 27.2903 244.908 26.8626 244.784 26.7435Z" fill="#ED7161"/>
<path d="M246.756 26.2842C246.875 26.1609 247.072 26.1575 247.195 26.2764C247.318 26.3956 247.321 26.592 247.202 26.7152C247.083 26.8387 246.456 27.2884 246.333 27.1696C246.209 27.0504 246.637 26.4074 246.756 26.2842Z" fill="#ED7161"/>
<path d="M252.711 26.8787H248.997C248.444 26.8787 248.167 26.2102 248.558 25.8192L251.183 23.1943C251.453 22.9243 251.908 22.9547 252.125 23.2685C252.715 24.1201 253.132 25.0999 253.325 26.1572C253.394 26.5339 253.094 26.8787 252.711 26.8787Z" fill="#ED7161"/>
<path d="M246.621 24.502V20.7877C246.621 20.4051 246.966 20.1053 247.342 20.1739C248.4 20.3672 249.379 20.784 250.231 21.374C250.545 21.5915 250.575 22.0459 250.305 22.3159L247.68 24.9408C247.289 25.3318 246.621 25.055 246.621 24.502Z" fill="#ED7161"/>
<path d="M244.32 24.9408L241.695 22.3159C241.425 22.0459 241.455 21.5913 241.769 21.374C242.621 20.784 243.601 20.3672 244.658 20.1739C245.035 20.1053 245.379 20.4048 245.379 20.7878V24.502C245.379 25.055 244.711 25.3318 244.32 24.9408Z" fill="#ED7161"/>
<path d="M245.379 30.4966V34.2108C245.379 34.5935 245.034 34.8933 244.658 34.8244C243.6 34.6313 242.621 34.2146 241.769 33.6246C241.455 33.4071 241.424 32.9537 241.694 32.6837C242.339 32.0384 243.479 30.8986 244.321 30.0569C244.711 29.6658 245.379 29.9436 245.379 30.4966Z" fill="#ED7161"/>
<path d="M247.68 30.0571L250.305 32.682C250.575 32.952 250.545 33.4066 250.231 33.6239C249.379 34.2139 248.399 34.6307 247.342 34.824C246.966 34.8926 246.621 34.5931 246.621 34.2101V30.4959C246.621 29.9429 247.289 29.6661 247.68 30.0571Z" fill="#ED7161"/>
<path d="M240.816 23.1929C241.461 23.8382 242.601 24.978 243.443 25.8197C243.834 26.2107 243.556 26.8786 243.003 26.8786H239.289C238.906 26.8786 238.606 26.5335 238.675 26.1571C238.868 25.0997 239.285 24.12 239.875 23.2681C240.092 22.9543 240.546 22.9229 240.816 23.1929Z" fill="#ED7161"/>
<path d="M239.289 28.1221H243.003C243.556 28.1221 243.833 28.7906 243.442 29.1816L240.817 31.8065C240.547 32.0765 240.092 32.0461 239.875 31.7323C239.285 30.8807 238.868 29.9009 238.675 28.8436C238.606 28.4669 238.906 28.1221 239.289 28.1221Z" fill="#ED7161"/>
<path d="M251.184 31.8077C250.539 31.1625 249.399 30.0227 248.557 29.181C248.166 28.7899 248.444 28.1221 248.997 28.1221H252.711C253.094 28.1221 253.394 28.4672 253.325 28.8436C253.132 29.901 252.715 30.8807 252.125 31.7323C251.908 32.0464 251.454 32.0777 251.184 31.8077Z" fill="#ED7161"/>
<defs>
<clipPath id="clip0_11_213">
<rect width="73" height="73" fill="white" transform="translate(0 24)"/>
</clipPath>
</defs>
</svg>
