<svg width="235" height="48" viewBox="0 0 235 48" fill="none" xmlns="http://www.w3.org/2000/svg">
<g clip-path="url(#clip0_5_170)">
<path d="M26.7744 27.0708H27.6671C28.1601 27.0708 28.5597 26.5129 28.5597 25.2855V21.2684C28.5597 20.7754 28.1601 20.3757 27.6671 20.3757H27.2207C26.7277 20.3757 26.3281 19.9761 26.3281 19.4831V17.6977C26.3281 17.2047 25.9284 16.8051 25.4354 16.8051H24.5428H20.5257V12.3417V11.0026C20.5257 10.2631 19.9262 9.66357 19.1867 9.66357H16.0624C15.3229 9.66357 14.7233 10.2631 14.7233 11.0026V14.5732H7.13545C5.90289 14.5732 4.90375 15.5724 4.90375 16.8049V22.161H2.672V23.0536V24.2033C2.672 25.5404 3.75599 26.6244 5.0931 26.6244H16.0622" fill="#8CC63F"/>
<path d="M17.8476 29.3025C17.8476 29.7955 17.4479 30.1952 16.9549 30.1952H16.0623C15.5693 30.1952 15.1696 29.7955 15.1696 29.3025V26.6245H13.8305V27.7404C13.8305 28.3566 13.3309 28.8563 12.7146 28.8563C12.0983 28.8563 11.5988 28.3567 11.5988 27.7404V26.6245H9.36707V29.0794C9.36707 29.6957 9.86664 30.1953 10.4829 30.1953C11.0992 30.1953 11.5988 30.6949 11.5988 31.3112V35.9977C11.5988 36.7372 10.9993 37.3367 10.2598 37.3367H9.81345H18.7402C17.7542 37.3367 16.9549 36.5374 16.9549 35.5514V32.6501C16.9549 32.0338 17.4544 31.5342 18.0707 31.5342C18.687 31.5342 19.1866 31.0347 19.1866 30.4184V28.4098H17.8476V29.3025Z" fill="#C69C6D"/>
<path d="M17.8755 28.4312V30.4182C17.8755 31.0344 17.3764 31.5341 16.7601 31.5341C16.1439 31.5341 15.6448 32.0337 15.6448 32.65V35.5512C15.6448 36.5372 16.4152 37.3543 17.4013 37.3543H18.7403C17.7542 37.3543 16.9363 36.5372 16.9363 35.5512V32.65C16.9363 32.0337 17.4354 31.5341 18.0517 31.5341C18.6679 31.5341 19.167 31.0345 19.167 30.4182V28.4312H17.8755Z" fill="#A67C52"/>
<path d="M13.825 29.3022C13.825 29.7952 14.2303 30.1921 14.7233 30.1921H15.6159C15.6935 30.1921 15.7702 30.1805 15.8419 30.1619C15.4575 30.0623 15.1752 29.7177 15.1752 29.3022V26.7285H13.825V27.74V29.3022Z" fill="#A67C52"/>
<path d="M11.3678 28.8561C11.6202 28.8561 11.852 28.7691 12.0389 28.6278C11.7694 28.4242 11.5942 28.1041 11.5942 27.7402V26.9048H10.244V27.7402C10.244 28.3565 10.7515 28.8561 11.3678 28.8561Z" fill="#A67C52"/>
<path d="M19.1866 21.7148H16.0622C15.5692 21.7148 15.1696 22.1145 15.1696 22.6075V24.3929C15.1696 24.8859 15.5692 25.2855 16.0622 25.2855C16.5552 25.2855 16.9549 25.6852 16.9549 26.1782V27.5172C16.9549 28.0102 17.3545 28.4099 17.8475 28.4099H24.989C25.482 28.4099 25.8817 28.0102 25.8817 27.5172V25.2856C25.8817 24.7926 25.482 24.3929 24.989 24.3929H23.2036C22.7106 24.3929 22.311 23.9933 22.311 23.5003V22.6076C22.311 22.1146 21.9113 21.715 21.4183 21.715" fill="#39B54A"/>
<path d="M10.7061 24.8392H12.7147C13.331 24.8392 13.8305 24.3397 13.8305 23.7234V21.4917C13.8305 20.8754 13.331 20.3758 12.7147 20.3758H10.9293C10.313 20.3758 9.81343 19.8762 9.81343 19.2599C9.81343 18.6436 9.31386 18.144 8.69755 18.144H1.55618C0.939878 18.144 0.440308 18.6436 0.440308 19.2599V21.0453C0.440308 21.6616 0.939878 22.1612 1.55618 22.1612H3.78788C4.40419 22.1612 4.90376 22.6607 4.90376 23.277V23.7234C4.90376 24.3397 5.40333 24.8392 6.01964 24.8392H8.92088" fill="#39B54A"/>
<path d="M20.9868 22.6072V23.4999C20.9868 23.9929 21.3716 24.3805 21.8646 24.3805H23.2036C22.7106 24.3805 22.337 23.9929 22.337 23.4999V22.6072C22.337 22.1142 21.9113 21.7388 21.4183 21.7388H20.0792C20.5723 21.7388 20.9868 22.1142 20.9868 22.6072Z" fill="#8CC63F"/>
<path d="M24.5678 27.5276C24.5678 28.0206 24.1429 28.431 23.6499 28.431H24.9889C25.4819 28.431 25.8592 28.0099 25.8592 27.5169V25.2852C25.8592 24.7921 25.4819 24.3804 24.9889 24.3804H23.6499C24.1429 24.3804 24.5678 24.7914 24.5678 25.2845V27.5276Z" fill="#8CC63F"/>
<path d="M8.4744 19.2731C8.4744 19.8894 8.97397 20.3884 9.59027 20.3884H10.9293C10.313 20.3884 9.81344 19.8893 9.81344 19.2731C9.81344 18.6568 9.31387 18.1577 8.69756 18.1577H7.35852C7.97483 18.1577 8.4744 18.6568 8.4744 19.2731Z" fill="#8CC63F"/>
<path d="M12.4747 23.7284C12.4747 24.3446 11.9919 24.8498 11.3756 24.8498H12.7146C13.3309 24.8498 13.8249 24.339 13.8249 23.7228V22.6069V21.491C13.8249 20.8747 13.3308 20.3882 12.7146 20.3882H11.3756C11.9919 20.3882 12.4747 20.8841 12.4747 21.5003V23.7284Z" fill="#8CC63F"/>
<path d="M9.14395 15.9121C8.52765 15.9121 8.02808 15.4126 8.02808 14.7963V13.0109C8.02808 12.3946 8.52765 11.895 9.14395 11.895H16.2854C16.9017 11.895 17.4013 12.3946 17.4013 13.0109C17.4013 13.6272 17.9009 14.1268 18.5172 14.1268H22.5343C23.1506 14.1268 23.6501 14.6263 23.6501 15.2427V17.4743C23.6501 18.0907 23.1506 18.5902 22.5343 18.5902H17.8477H14.0538C13.4375 18.5902 12.9379 18.0907 12.9379 17.4743V17.028C12.9379 16.4117 12.4383 15.9121 11.822 15.9121H9.14395Z" fill="#39B54A"/>
<path d="M9.81355 25.7316C10.3066 25.7316 10.7062 25.3319 10.7062 24.8389C10.7062 24.3459 10.3066 23.9463 9.81355 23.9463C9.32055 23.9463 8.9209 24.3459 8.9209 24.8389C8.9209 25.3319 9.32055 25.7316 9.81355 25.7316Z" fill="#FF1D25"/>
<path d="M5.79646 21.2682C6.28947 21.2682 6.68912 20.8686 6.68912 20.3756C6.68912 19.8826 6.28947 19.4829 5.79646 19.4829C5.30346 19.4829 4.90381 19.8826 4.90381 20.3756C4.90381 20.8686 5.30346 21.2682 5.79646 21.2682Z" fill="#FF1D25"/>
<path d="M16.955 19.4831C17.448 19.4831 17.8477 19.0834 17.8477 18.5904C17.8477 18.0974 17.448 17.6978 16.955 17.6978C16.462 17.6978 16.0624 18.0974 16.0624 18.5904C16.0624 19.0834 16.462 19.4831 16.955 19.4831Z" fill="#FF1D25"/>
<path d="M10.7059 16.8048C11.1989 16.8048 11.5985 16.4052 11.5985 15.9122C11.5985 15.4192 11.1989 15.0195 10.7059 15.0195C10.2129 15.0195 9.81323 15.4192 9.81323 15.9122C9.81323 16.4052 10.2129 16.8048 10.7059 16.8048Z" fill="#FF1D25"/>
<path d="M19.6331 27.0705C20.1261 27.0705 20.5258 26.6708 20.5258 26.1778C20.5258 25.6848 20.1261 25.2852 19.6331 25.2852C19.1401 25.2852 18.7405 25.6848 18.7405 26.1778C18.7405 26.6708 19.1401 27.0705 19.6331 27.0705Z" fill="#FF1D25"/>
<path d="M20.0793 22.6071C20.5723 22.6071 20.972 22.2074 20.972 21.7144C20.972 21.2214 20.5723 20.8218 20.0793 20.8218C19.5863 20.8218 19.1866 21.2214 19.1866 21.7144C19.1866 22.2074 19.5863 22.6071 20.0793 22.6071Z" fill="#FF1D25"/>
<path d="M24.9893 23.0534C25.4823 23.0534 25.882 22.6537 25.882 22.1607C25.882 21.6677 25.4823 21.2681 24.9893 21.2681C24.4963 21.2681 24.0967 21.6677 24.0967 22.1607C24.0967 22.6537 24.4963 23.0534 24.9893 23.0534Z" fill="#FF1D25"/>
<path d="M15.1696 12.9918C15.1696 13.6081 15.6692 14.1072 16.2855 14.1072H18.5172C17.9009 14.1072 17.4013 13.6081 17.4013 12.9918C17.4013 12.3756 16.9017 11.8765 16.2854 11.8765H14.0537C14.67 11.8765 15.1696 12.3756 15.1696 12.9918Z" fill="#8CC63F"/>
<path d="M21.3977 17.4638C21.3977 18.08 20.9187 18.5689 20.3024 18.5689H22.5341C23.1504 18.5689 23.6285 18.0908 23.6285 17.4745V15.2428C23.6285 14.6265 23.1503 14.1074 22.5341 14.1074H20.3024C20.9186 14.1074 21.3977 14.6114 21.3977 15.2277V17.4638Z" fill="#8CC63F"/>
<path d="M27.667 27.5112H26.7744V26.6306H27.667C27.9165 26.6306 28.1195 26.4276 28.1195 26.1782V21.2685C28.1195 21.019 27.9165 20.8161 27.667 20.8161H27.2207C26.4857 20.8161 25.8877 20.2181 25.8877 19.4832V17.6978C25.8877 17.4483 25.6848 17.2453 25.4353 17.2453H24.5426V16.3647H25.4353C26.1703 16.3647 26.7682 16.9627 26.7682 17.6977V19.4831C26.7682 19.7325 26.9712 19.9355 27.2207 19.9355H27.667C28.402 19.9355 29 20.5334 29 21.2684V26.1781C29 26.9132 28.402 27.5112 27.667 27.5112Z" fill="black"/>
<path d="M20.9721 15.0192C21.4651 15.0192 21.8648 14.6195 21.8648 14.1265C21.8648 13.6335 21.4651 13.2339 20.9721 13.2339C20.4791 13.2339 20.0795 13.6335 20.0795 14.1265C20.0795 14.6195 20.4791 15.0192 20.9721 15.0192Z" fill="#FF1D25"/>
<path d="M5.79636 21.7083C5.06133 21.7083 4.46338 21.1104 4.46338 20.3754C4.46338 19.6404 5.06133 19.0425 5.79636 19.0425C6.53133 19.0425 7.12928 19.6404 7.12928 20.3754C7.12928 21.1103 6.53133 21.7083 5.79636 21.7083ZM5.79636 19.9229C5.54691 19.9229 5.34391 20.1258 5.34391 20.3753C5.34391 20.6247 5.54686 20.8277 5.79636 20.8277C6.0458 20.8277 6.24875 20.6247 6.24875 20.3753C6.24875 20.1258 6.0458 19.9229 5.79636 19.9229Z" fill="black"/>
<path d="M19.6329 27.5111C18.8978 27.5111 18.2999 26.9132 18.2999 26.1782C18.2999 25.4432 18.8979 24.8452 19.6329 24.8452C20.3679 24.8452 20.9658 25.4432 20.9658 26.1782C20.9658 26.9132 20.3679 27.5111 19.6329 27.5111ZM19.6329 25.7258C19.3834 25.7258 19.1805 25.9288 19.1805 26.1783C19.1805 26.4277 19.3834 26.6306 19.6329 26.6306C19.8824 26.6306 20.0853 26.4277 20.0853 26.1783C20.0853 25.9288 19.8824 25.7258 19.6329 25.7258Z" fill="black"/>
<path d="M24.989 23.494C24.254 23.494 23.656 22.8961 23.656 22.161C23.656 21.426 24.254 20.8281 24.989 20.8281C25.724 20.8281 26.3219 21.4261 26.3219 22.161C26.322 22.8961 25.724 23.494 24.989 23.494ZM24.989 21.7087C24.7395 21.7087 24.5365 21.9116 24.5365 22.161C24.5365 22.4105 24.7395 22.6135 24.989 22.6135C25.2384 22.6135 25.4414 22.4106 25.4414 22.161C25.4414 21.9115 25.2384 21.7087 24.989 21.7087Z" fill="black"/>
<path d="M3.14069 20.3887H2.20142V21.2693H3.14069V20.3887Z" fill="black"/>
<path d="M8.48289 21.269H7.60229V22.1496H8.48289V21.269Z" fill="black"/>
<path d="M11.1245 22.1499H8.48279V23.0305H11.1245V22.1499Z" fill="black"/>
<path d="M7.6023 15.4574H5.95689C6.27215 15.1813 6.68449 15.0134 7.13547 15.0134V14.1328C5.66219 14.1328 4.4635 15.3314 4.4635 16.8048V17.2512H5.34409V16.8048C5.34409 16.6433 5.36596 16.4869 5.40623 16.3379H7.60235V15.4573H7.6023V15.4574Z" fill="black"/>
<path d="M22.5341 13.6868H22.2298C22.0476 13.1676 21.5527 12.7941 20.9719 12.7941C20.3911 12.7941 19.8962 13.1675 19.714 13.6868H18.517C18.1445 13.6868 17.8415 13.3837 17.8415 13.0112C17.8415 12.1531 17.1434 11.4551 16.2853 11.4551H9.14391C8.28581 11.4551 7.58777 12.1531 7.58777 13.0112V14.7966C7.58777 15.6547 8.28581 16.3527 9.14391 16.3527H9.44824C9.63051 16.872 10.1254 17.2454 10.7062 17.2454C11.2817 17.2454 11.7731 16.8788 11.9593 16.3668C12.2662 16.4304 12.4975 16.7029 12.4975 17.0283V17.4747C12.4975 18.3328 13.1956 19.0308 14.0537 19.0308H15.697C15.8793 19.55 16.3741 19.9235 16.9549 19.9235C17.5356 19.9235 18.0305 19.55 18.2128 19.0308H22.5342C23.3923 19.0308 24.0903 18.3327 24.0903 17.4747V15.243C24.0902 14.3849 23.3921 13.6868 22.5341 13.6868ZM20.9719 13.6747C21.2213 13.6747 21.4243 13.8776 21.4243 14.1271C21.4243 14.3765 21.2213 14.5795 20.9719 14.5795C20.7224 14.5795 20.5194 14.3765 20.5194 14.1271C20.5195 13.8776 20.7224 13.6747 20.9719 13.6747ZM10.7061 16.3648C10.4566 16.3648 10.2537 16.1619 10.2537 15.9124C10.2537 15.663 10.4566 15.46 10.7061 15.46C10.9556 15.46 11.1585 15.663 11.1585 15.9124C11.1585 16.1619 10.9556 16.3648 10.7061 16.3648ZM16.9548 19.0428C16.7054 19.0428 16.5024 18.8399 16.5024 18.5904C16.5024 18.341 16.7054 18.138 16.9548 18.138C17.2043 18.138 17.4072 18.341 17.4072 18.5904C17.4073 18.8399 17.2043 19.0428 16.9548 19.0428ZM23.2096 17.4746C23.2096 17.8471 22.9066 18.1501 22.5341 18.1501H18.2128C18.0305 17.6309 17.5356 17.2575 16.9548 17.2575C16.3741 17.2575 15.8792 17.6309 15.6969 18.1501H14.0536C13.6811 18.1501 13.378 17.847 13.378 17.4746V17.0282C13.378 16.2189 12.7568 15.5522 11.9663 15.479C11.786 14.9561 11.2894 14.5794 10.7061 14.5794C10.1253 14.5794 9.6304 14.9528 9.44813 15.472H9.14386C8.77139 15.472 8.4683 15.1689 8.4683 14.7965V14.1075H9.833V13.2269H8.4683V13.0112C8.4683 12.6387 8.77139 12.3356 9.14386 12.3356H16.2853C16.6578 12.3356 16.9609 12.6387 16.9609 13.0112C16.9609 13.8693 17.659 14.5673 18.517 14.5673H19.714C19.8962 15.0865 20.3911 15.46 20.9719 15.46C21.5526 15.46 22.0475 15.0865 22.2298 14.5673H22.534C22.9066 14.5673 23.2096 14.8704 23.2096 15.2429V17.4746H23.2096Z" fill="black"/>
<path d="M15.6448 14.1074H13.825V14.988H15.6448V14.1074Z" fill="black"/>
<path d="M16.9363 15.0464H15.6448V15.927H16.9363V15.0464Z" fill="black"/>
<path d="M22.337 16.3379H20.9868V17.2185H22.337V16.3379Z" fill="black"/>
<path d="M23.2176 19.9189H22.337V20.7995H23.2176V19.9189Z" fill="black"/>
<path d="M24.0981 25.731H22.7479V26.6115H24.0981V25.731Z" fill="black"/>
<path d="M19.1866 9.22314H16.0622C15.0811 9.22314 14.283 10.0213 14.283 11.0025H15.1636C15.1636 10.5068 15.5667 10.1037 16.0623 10.1037H19.1867C19.68 10.1037 20.0815 10.5034 20.0851 10.9959H19.1671V11.8765H20.0854V12.3415H20.966V11.0024C20.9659 10.0213 20.1677 9.22314 19.1866 9.22314Z" fill="black"/>
<path d="M4.46339 23.2768V23.7232C4.46339 24.5812 5.16149 25.2793 6.01954 25.2793H8.55551C8.73778 25.7985 9.23265 26.172 9.81344 26.172C10.3942 26.172 10.8891 25.7986 11.0714 25.2793H12.7147C13.5727 25.2793 14.2708 24.5812 14.2708 23.7232V21.4915C14.2708 20.6334 13.5727 19.9353 12.7147 19.9353H10.9293C10.5568 19.9353 10.2538 19.6322 10.2538 19.2598C10.2538 18.4017 9.55573 17.7036 8.69762 17.7036H1.55614C0.698039 17.7036 0 18.4017 0 19.2598V21.0451C0 21.9032 0.698039 22.6013 1.55614 22.6013H3.78784C4.16031 22.6012 4.46339 22.9043 4.46339 23.2768ZM9.81344 25.2914C9.564 25.2914 9.36105 25.0884 9.36105 24.8389C9.36105 24.5895 9.564 24.3865 9.81344 24.3865C10.0629 24.3865 10.2658 24.5894 10.2658 24.8389C10.2658 25.0884 10.0629 25.2914 9.81344 25.2914ZM0.880592 21.0451V20.3887H2.20145V19.5081H0.880592V19.2598C0.880592 18.8872 1.18368 18.5842 1.55614 18.5842H8.69762C9.07009 18.5842 9.37317 18.8873 9.37317 19.2598C9.37317 20.1179 10.0713 20.8159 10.9293 20.8159H12.7147C13.0872 20.8159 13.3902 21.119 13.3902 21.4915V23.7232C13.3902 24.0956 13.0872 24.3987 12.7147 24.3987H11.0714C10.8891 23.8795 10.3942 23.506 9.81344 23.506C9.23276 23.506 8.73784 23.8794 8.55551 24.3987H6.01954C5.64707 24.3987 5.34399 24.0956 5.34399 23.7232V23.2768C5.34399 22.4187 4.64595 21.7206 3.78784 21.7206H1.55614C1.18368 21.7206 0.880592 21.4176 0.880592 21.0451Z" fill="black"/>
<path d="M24.989 23.9525H23.2036C22.9542 23.9525 22.7512 23.7496 22.7512 23.5001V22.6074C22.7512 21.8724 22.1533 21.2745 21.4182 21.2745H21.3371C21.1549 20.7553 20.66 20.3818 20.0792 20.3818C19.4985 20.3818 19.0035 20.7553 18.8213 21.2745H16.0621C15.3271 21.2745 14.7292 21.8724 14.7292 22.6074V24.3928C14.7292 25.1278 15.3272 25.7257 16.0621 25.7257C16.3116 25.7257 16.5145 25.9287 16.5145 26.1782V27.5172C16.5145 28.0979 16.888 28.5929 17.4072 28.7751V29.3025C17.4072 29.552 17.2042 29.755 16.9548 29.755H16.0621C15.8126 29.755 15.6097 29.552 15.6097 29.3025V27.0647H16.0621V26.1842H5.09306C4.00086 26.1842 3.11228 25.2955 3.11228 24.2034V23.0538H2.23169V24.2034C2.23169 25.7812 3.51528 27.0648 5.09306 27.0648H8.92684V29.0793C8.92684 29.9375 9.62488 30.6355 10.483 30.6355C10.8555 30.6355 11.1585 30.9386 11.1585 31.311V35.9976C11.1585 36.4932 10.7554 36.8963 10.2598 36.8964H10.2593H9.81349V37.777H10.2599C10.26 37.777 10.2603 37.777 10.2604 37.777L18.5155 37.7656C18.5894 37.7731 18.6644 37.777 18.7403 37.777V37.7653H18.7409L18.7403 37.325V36.8964C18.7402 36.8964 18.7399 36.8964 18.7398 36.8964V36.8848L18.5681 36.885C17.9075 36.8001 17.3953 36.2346 17.3953 35.5513V32.6501C17.3953 32.2776 17.6984 31.9746 18.0708 31.9746C18.9289 31.9746 19.627 31.2765 19.627 30.4184V28.8502H24.9891C25.7241 28.8502 26.322 28.2523 26.322 27.5173V25.2856C26.322 24.5505 25.724 23.9525 24.989 23.9525ZM20.0793 21.2624C20.3287 21.2624 20.5317 21.4653 20.5317 21.7148C20.5317 21.9642 20.3287 22.1671 20.0793 22.1671C19.8298 22.1671 19.6269 21.9642 19.6269 21.7148C19.6268 21.4653 19.8298 21.2624 20.0793 21.2624ZM12.0391 27.0647H13.3903V27.7403C13.3903 28.1128 13.0872 28.4159 12.7147 28.4159C12.3423 28.4159 12.0392 28.1128 12.0392 27.7403L12.0391 27.0647ZM18.7463 30.4184C18.7463 30.7909 18.4432 31.0939 18.0707 31.0939C17.2126 31.0939 16.5146 31.792 16.5146 32.6501V35.5513C16.5146 36.0521 16.681 36.5148 16.9613 36.8871L11.7957 36.8942C11.9501 36.6307 12.0391 36.3244 12.0391 35.9975V31.311C12.0391 30.4529 11.341 29.7548 10.4829 29.7548C10.1105 29.7548 9.80737 29.4518 9.80737 29.0793V27.0647H11.1585V27.7403C11.1585 28.5984 11.8566 29.2964 12.7147 29.2964C13.5727 29.2964 14.2708 28.5984 14.2708 27.7403V27.0647H14.7293V29.3025C14.7293 30.0375 15.3273 30.6355 16.0623 30.6355H16.9549C17.6899 30.6355 18.2878 30.0375 18.2878 29.3025V28.8501H18.7463L18.7463 30.4184ZM25.4414 27.5172C25.4414 27.7666 25.2384 27.9696 24.989 27.9696H17.8476C17.5981 27.9696 17.3952 27.7666 17.3952 27.5172V26.1782C17.3952 25.4431 16.7972 24.8452 16.0623 24.8452C15.8128 24.8452 15.6098 24.6422 15.6098 24.3928V22.6074C15.6098 22.358 15.8128 22.155 16.0623 22.155H18.8214C19.0037 22.6743 19.4986 23.0477 20.0793 23.0477C20.6601 23.0477 21.155 22.6743 21.3373 22.155H21.4184C21.6679 22.155 21.8708 22.358 21.8708 22.6074V23.5001C21.8708 24.2352 22.4688 24.8331 23.2037 24.8331H24.9891C25.2385 24.8331 25.4415 25.0361 25.4415 25.2855V27.5172H25.4414Z" fill="black"/>
</g>
<g filter="url(#filter0_i_5_170)">
<path d="M34.8693 39V9.90909H53.5057V14.3267H40.1392V22.2244H52.2273V26.642H40.1392V39H34.8693ZM57.767 39V17.1818H62.7528V20.8182H62.9801C63.3778 19.5587 64.0597 18.5881 65.0256 17.9062C66.0009 17.215 67.1136 16.8693 68.3636 16.8693C68.6477 16.8693 68.965 16.8835 69.3153 16.9119C69.6752 16.9309 69.9735 16.964 70.2102 17.0114V21.7415C69.9924 21.6657 69.6468 21.5994 69.1733 21.5426C68.7093 21.4763 68.2595 21.4432 67.8239 21.4432C66.8864 21.4432 66.0436 21.6468 65.2955 22.054C64.5568 22.4517 63.9744 23.0057 63.5483 23.7159C63.1222 24.4261 62.9091 25.2453 62.9091 26.1733V39H57.767ZM87.5327 29.8239V17.1818H92.6747V39H87.6889V35.1222H87.4616C86.9692 36.3437 86.1596 37.3428 85.0327 38.1193C83.9152 38.8958 82.5374 39.2841 80.8991 39.2841C79.4692 39.2841 78.205 38.9669 77.1065 38.3324C76.0175 37.6884 75.1652 36.7557 74.5497 35.5341C73.9342 34.303 73.6264 32.8163 73.6264 31.0739V17.1818H78.7685V30.2784C78.7685 31.661 79.1473 32.7595 79.9048 33.5739C80.6624 34.3883 81.6567 34.7955 82.8878 34.7955C83.6454 34.7955 84.3793 34.6108 85.0895 34.2415C85.7997 33.8722 86.3821 33.3229 86.8366 32.5938C87.3007 31.8551 87.5327 30.9318 87.5327 29.8239ZM97.9624 39V17.1818H103.104V39H97.9624ZM100.548 14.0852C99.7332 14.0852 99.0324 13.8153 98.4453 13.2756C97.8582 12.7263 97.5646 12.0682 97.5646 11.3011C97.5646 10.5246 97.8582 9.86648 98.4453 9.3267C99.0324 8.77746 99.7332 8.50284 100.548 8.50284C101.371 8.50284 102.072 8.77746 102.65 9.3267C103.237 9.86648 103.531 10.5246 103.531 11.3011C103.531 12.0682 103.237 12.7263 102.65 13.2756C102.072 13.8153 101.371 14.0852 100.548 14.0852ZM119.287 17.1818V21.1591H106.744V17.1818H119.287ZM109.841 11.9545H114.983V32.4375C114.983 33.1288 115.087 33.6591 115.295 34.0284C115.513 34.3883 115.797 34.6345 116.148 34.767C116.498 34.8996 116.886 34.9659 117.312 34.9659C117.634 34.9659 117.928 34.9422 118.193 34.8949C118.468 34.8475 118.676 34.8049 118.818 34.767L119.685 38.7869C119.41 38.8816 119.017 38.9858 118.506 39.0994C118.004 39.2131 117.388 39.2794 116.659 39.2983C115.371 39.3362 114.211 39.142 113.179 38.7159C112.147 38.2803 111.328 37.608 110.722 36.6989C110.125 35.7898 109.831 34.6534 109.841 33.2898V11.9545ZM150.754 22.9489L146.066 23.4602C145.933 22.9867 145.701 22.5417 145.37 22.125C145.048 21.7083 144.612 21.3722 144.063 21.1165C143.514 20.8608 142.842 20.733 142.046 20.733C140.976 20.733 140.076 20.965 139.347 21.429C138.628 21.893 138.272 22.4943 138.282 23.233C138.272 23.8674 138.504 24.3835 138.978 24.7812C139.461 25.179 140.256 25.5057 141.364 25.7614L145.086 26.5568C147.15 27.0019 148.684 27.7074 149.688 28.6733C150.701 29.6392 151.213 30.9034 151.222 32.4659C151.213 33.839 150.81 35.0511 150.015 36.1023C149.229 37.1439 148.135 37.9583 146.734 38.5455C145.332 39.1326 143.722 39.4261 141.904 39.4261C139.234 39.4261 137.084 38.8674 135.455 37.75C133.826 36.6231 132.856 35.0559 132.543 33.0483L137.558 32.5653C137.785 33.5502 138.268 34.2936 139.006 34.7955C139.745 35.2973 140.706 35.5483 141.89 35.5483C143.112 35.5483 144.092 35.2973 144.83 34.7955C145.578 34.2936 145.952 33.6733 145.952 32.9347C145.952 32.3097 145.711 31.7936 145.228 31.3864C144.754 30.9792 144.016 30.6667 143.012 30.4489L139.29 29.6676C137.198 29.232 135.649 28.4981 134.646 27.4659C133.642 26.4242 133.145 25.108 133.154 23.517C133.145 22.1723 133.509 21.0076 134.248 20.0227C134.996 19.0284 136.033 18.2614 137.359 17.7216C138.694 17.1723 140.233 16.8977 141.975 16.8977C144.532 16.8977 146.544 17.4422 148.012 18.5312C149.489 19.6203 150.403 21.0928 150.754 22.9489ZM160.604 26.2159V39H155.462V9.90909H160.491V20.8892H160.746C161.258 19.6581 162.049 18.6875 163.119 17.9773C164.198 17.2576 165.571 16.8977 167.238 16.8977C168.753 16.8977 170.074 17.215 171.201 17.8494C172.328 18.4839 173.199 19.4119 173.815 20.6335C174.44 21.8551 174.752 23.3466 174.752 25.108V39H169.61V25.9034C169.61 24.4356 169.231 23.2945 168.474 22.4801C167.726 21.6562 166.674 21.2443 165.32 21.2443C164.411 21.2443 163.597 21.4432 162.877 21.8409C162.167 22.2292 161.608 22.7926 161.201 23.5312C160.803 24.2699 160.604 25.1648 160.604 26.2159ZM189.511 39.4261C187.38 39.4261 185.533 38.9574 183.971 38.0199C182.408 37.0824 181.196 35.7708 180.335 34.0852C179.482 32.3996 179.056 30.4299 179.056 28.1761C179.056 25.9223 179.482 23.9479 180.335 22.2528C181.196 20.5578 182.408 19.2415 183.971 18.304C185.533 17.3665 187.38 16.8977 189.511 16.8977C191.641 16.8977 193.488 17.3665 195.05 18.304C196.613 19.2415 197.82 20.5578 198.673 22.2528C199.534 23.9479 199.965 25.9223 199.965 28.1761C199.965 30.4299 199.534 32.3996 198.673 34.0852C197.82 35.7708 196.613 37.0824 195.05 38.0199C193.488 38.9574 191.641 39.4261 189.511 39.4261ZM189.539 35.3068C190.694 35.3068 191.66 34.9896 192.437 34.3551C193.213 33.7112 193.791 32.8494 194.17 31.7699C194.558 30.6903 194.752 29.4877 194.752 28.1619C194.752 26.8267 194.558 25.6193 194.17 24.5398C193.791 23.4508 193.213 22.5843 192.437 21.9403C191.66 21.2964 190.694 20.9744 189.539 20.9744C188.355 20.9744 187.371 21.2964 186.585 21.9403C185.808 22.5843 185.226 23.4508 184.837 24.5398C184.459 25.6193 184.269 26.8267 184.269 28.1619C184.269 29.4877 184.459 30.6903 184.837 31.7699C185.226 32.8494 185.808 33.7112 186.585 34.3551C187.371 34.9896 188.355 35.3068 189.539 35.3068ZM204.33 47.1818V17.1818H209.386V20.7898H209.685C209.95 20.2595 210.324 19.696 210.807 19.0994C211.29 18.4934 211.943 17.9773 212.767 17.5511C213.591 17.1155 214.642 16.8977 215.92 16.8977C217.606 16.8977 219.126 17.3286 220.48 18.1903C221.844 19.0426 222.923 20.3068 223.719 21.983C224.524 23.6496 224.926 25.6951 224.926 28.1193C224.926 30.5152 224.533 32.5511 223.747 34.2273C222.961 35.9034 221.891 37.1818 220.537 38.0625C219.183 38.9432 217.649 39.3835 215.935 39.3835C214.685 39.3835 213.648 39.1752 212.824 38.7585C212 38.3419 211.337 37.84 210.835 37.2528C210.343 36.6562 209.959 36.0928 209.685 35.5625H209.472V47.1818H204.33ZM209.372 28.0909C209.372 29.5019 209.571 30.7377 209.969 31.7983C210.376 32.8589 210.958 33.6875 211.716 34.2841C212.483 34.8712 213.411 35.1648 214.5 35.1648C215.636 35.1648 216.588 34.8617 217.355 34.2557C218.122 33.6402 218.7 32.8021 219.088 31.7415C219.486 30.6714 219.685 29.4545 219.685 28.0909C219.685 26.7367 219.491 25.5341 219.102 24.483C218.714 23.4318 218.136 22.608 217.369 22.0114C216.602 21.4148 215.646 21.1165 214.5 21.1165C213.402 21.1165 212.469 21.4053 211.702 21.983C210.935 22.5606 210.352 23.3703 209.955 24.4119C209.566 25.4536 209.372 26.6799 209.372 28.0909Z" fill="#9FEE00"/>
</g>
<g clip-path="url(#clip1_5_170)">
<path d="M100.5 8C98.567 8 97 9.56703 97 11.5C97 13.433 98.567 15 100.5 15C102.433 15 104 13.433 104 11.5C104 9.56703 102.433 8 100.5 8Z" fill="#D13834"/>
<path d="M100.973 11.7938C101.021 11.8402 101.022 11.9166 100.976 11.9645C100.929 12.0124 100.853 12.0137 100.805 11.9675C100.757 11.9212 100.582 11.6771 100.628 11.6292C100.675 11.5812 100.925 11.7475 100.973 11.7938Z" fill="#ED7161"/>
<path d="M100.206 11.9726C100.16 12.0206 100.083 12.0219 100.035 11.9757C99.9874 11.9293 99.9861 11.8529 100.032 11.805C100.079 11.757 100.323 11.5821 100.371 11.6283C100.419 11.6747 100.252 11.9247 100.206 11.9726Z" fill="#ED7161"/>
<path d="M100.027 11.206C99.9794 11.1597 99.9781 11.0833 100.024 11.0354C100.071 10.9874 100.147 10.9861 100.195 11.0323C100.243 11.0787 100.418 11.3227 100.372 11.3706C100.325 11.4187 100.075 11.2524 100.027 11.206Z" fill="#ED7161"/>
<path d="M100.794 11.0271C100.84 10.9791 100.917 10.9778 100.965 11.024C101.013 11.0704 101.014 11.1468 100.968 11.1947C100.921 11.2427 100.677 11.4176 100.629 11.3714C100.581 11.325 100.748 11.075 100.794 11.0271Z" fill="#ED7161"/>
<path d="M103.11 11.2586H101.665C101.45 11.2586 101.343 10.9986 101.495 10.8466L102.516 9.82579C102.621 9.72079 102.797 9.73261 102.882 9.85463C103.111 10.1858 103.273 10.5668 103.349 10.978C103.375 11.1245 103.259 11.2586 103.11 11.2586Z" fill="#ED7161"/>
<path d="M100.741 10.3344V8.89C100.741 8.7412 100.875 8.62461 101.022 8.65128C101.433 8.72648 101.814 8.88856 102.145 9.11798C102.267 9.20259 102.279 9.37928 102.174 9.48428L101.153 10.5051C101.001 10.6571 100.741 10.5495 100.741 10.3344Z" fill="#ED7161"/>
<path d="M99.8466 10.5051L98.8258 9.48428C98.7208 9.37928 98.7326 9.20248 98.8546 9.11799C99.1858 8.88856 99.5669 8.72647 99.978 8.65128C100.125 8.62461 100.259 8.74108 100.259 8.89001V10.3344C100.259 10.5495 99.9986 10.6572 99.8466 10.5051Z" fill="#ED7161"/>
<path d="M100.259 12.6655V14.1099C100.259 14.2587 100.125 14.3753 99.978 14.3485C99.5668 14.2734 99.1858 14.1113 98.8547 13.8819C98.7326 13.7973 98.7203 13.621 98.8253 13.516C99.0764 13.2651 99.5195 12.8218 99.847 12.4945C99.9989 12.3424 100.259 12.4504 100.259 12.6655Z" fill="#ED7161"/>
<path d="M101.153 12.4945L102.174 13.5153C102.279 13.6203 102.267 13.7971 102.145 13.8816C101.814 14.1111 101.433 14.2731 101.022 14.3483C100.876 14.375 100.741 14.2585 100.741 14.1096V12.6652C100.741 12.4501 101.001 12.3425 101.153 12.4945Z" fill="#ED7161"/>
<path d="M98.484 9.82514C98.7349 10.0761 99.1782 10.5193 99.5055 10.8467C99.6575 10.9987 99.5495 11.2585 99.3345 11.2585H97.8902C97.7412 11.2585 97.6246 11.1243 97.6514 10.9779C97.7265 10.5667 97.8886 10.1857 98.118 9.85436C98.2026 9.73233 98.379 9.72014 98.484 9.82514Z" fill="#ED7161"/>
<path d="M97.8902 11.7412H99.3346C99.5495 11.7412 99.6573 12.0012 99.5052 12.1532L98.4844 13.174C98.3794 13.279 98.2026 13.2672 98.1181 13.1452C97.8886 12.814 97.7265 12.433 97.6514 12.0218C97.6246 11.8753 97.7412 11.7412 97.8902 11.7412Z" fill="#ED7161"/>
<path d="M102.516 13.1745C102.265 12.9236 101.822 12.4803 101.494 12.153C101.342 12.0009 101.45 11.7412 101.665 11.7412H103.11C103.259 11.7412 103.375 11.8754 103.348 12.0218C103.273 12.433 103.111 12.814 102.882 13.1452C102.797 13.2673 102.621 13.2795 102.516 13.1745Z" fill="#ED7161"/>
</g>
<path d="M189 39.9086C195.579 39.9086 200.912 34.353 200.912 27.4999C200.912 20.6468 195.579 15.0913 189 15.0913C182.421 15.0913 177.088 20.6468 177.088 27.4999C177.088 34.353 182.421 39.9086 189 39.9086Z" fill="#DDE9AF"/>
<path fill-rule="evenodd" clip-rule="evenodd" d="M188.007 28.0833C188.007 28.0833 185.638 28.272 184.589 27.8003C183.415 27.2723 181.744 25.1182 181.744 25.1182C181.744 25.1182 184.841 24.3244 185.892 24.8945C186.992 25.4915 187.787 27.1522 188.007 28.0833Z" fill="#88AA00"/>
<path fill-rule="evenodd" clip-rule="evenodd" d="M188.831 28.0515C189.137 26.9667 188.319 25.2925 188.831 24.5938C188.986 24.4266 189.35 24.346 189.496 24.521C189.412 25.3824 189.377 27.1193 189.828 27.9787C189.489 28.0628 189.128 28.3226 188.831 28.0515Z" fill="#C87137"/>
<path fill-rule="evenodd" clip-rule="evenodd" d="M190.419 28.5802C189.04 28.6045 187.855 28.9203 186.98 29.791C186.14 30.6258 186.168 32.057 185.714 33.1694C184.892 35.1837 183.768 36.4481 183.099 38.2687C184.896 39.3402 186.93 39.9054 189 39.9087C191.481 39.9032 193.899 39.0906 195.915 37.5846C195.527 36.4076 194.572 35.2123 193.868 34.0471C192.752 32.202 192.596 28.553 190.419 28.5802Z" fill="#BCD35F"/>
<defs>
<filter id="filter0_i_5_170" x="34.8693" y="8.50293" width="190.057" height="42.6787" filterUnits="userSpaceOnUse" color-interpolation-filters="sRGB">
<feFlood flood-opacity="0" result="BackgroundImageFix"/>
<feBlend mode="normal" in="SourceGraphic" in2="BackgroundImageFix" result="shape"/>
<feColorMatrix in="SourceAlpha" type="matrix" values="0 0 0 0 0 0 0 0 0 0 0 0 0 0 0 0 0 0 127 0" result="hardAlpha"/>
<feOffset dy="4"/>
<feGaussianBlur stdDeviation="2"/>
<feComposite in2="hardAlpha" operator="arithmetic" k2="-1" k3="1"/>
<feColorMatrix type="matrix" values="0 0 0 0 0 0 0 0 0 0 0 0 0 0 0 0 0 0 0.25 0"/>
<feBlend mode="normal" in2="shape" result="effect1_innerShadow_5_170"/>
</filter>
<clipPath id="clip0_5_170">
<rect width="29" height="29" fill="white" transform="translate(0 9)"/>
</clipPath>
<clipPath id="clip1_5_170">
<rect width="7" height="7" fill="white" transform="translate(97 8)"/>
</clipPath>
</defs>
</svg>
